<svg width="1762" height="554" viewBox="0 0 1762 554" fill="none" xmlns="http://www.w3.org/2000/svg">
<mask id="path-1-inside-1_984_227" fill="white">
<path d="M24 0C10.7451 1.34486e-07 0 10.7452 0 24V530C0 543.255 10.7452 554 24 554H1738C1751.25 554 1762 543.255 1762 530V116.71C1762 103.455 1751.25 92.71 1738 92.71H1610.86C1603.78 92.71 1597.07 89.5873 1592.51 84.1764L1528.76 8.53354C1524.2 3.1227 1517.48 0 1510.4 0H24Z"/>
</mask>
<path d="M24 0C10.7451 1.34486e-07 0 10.7452 0 24V530C0 543.255 10.7452 554 24 554H1738C1751.25 554 1762 543.255 1762 530V116.71C1762 103.455 1751.25 92.71 1738 92.71H1610.86C1603.78 92.71 1597.07 89.5873 1592.51 84.1764L1528.76 8.53354C1524.2 3.1227 1517.48 0 1510.4 0H24Z" fill="#FBFBFB"/>
<path d="M24 0V-1V0ZM0 24H-1H0ZM0 530H-1H0ZM24 554V555V554ZM1738 554L1738 555H1738V554ZM1762 530H1763H1762ZM1528.76 8.53354L1527.99 9.17797L1528.76 8.53354ZM1592.51 84.1764L1593.27 83.532L1592.51 84.1764ZM24 0V1C11.2975 1 1 11.2975 1 24H0H-1C-1 10.1929 10.1929 -1 24 -1V0ZM0 24H1V530H0H-1V24H0ZM0 530H1C1 542.703 11.2975 553 24 553V554V555C10.1929 555 -1 543.807 -1 530H0ZM24 554V553H1738V554V555H24V554ZM1738 554L1738 553C1750.7 553 1761 542.703 1761 530H1762H1763C1763 543.807 1751.81 555 1738 555L1738 554ZM1762 530H1761V116.71H1762H1763V530H1762ZM1738 92.71V93.71H1610.86V92.71V91.71H1738V92.71ZM1592.51 84.1764L1591.74 84.8209L1527.99 9.17797L1528.76 8.53354L1529.52 7.8891L1593.27 83.532L1592.51 84.1764ZM1510.4 0V1H24V0V-1H1510.4V0ZM1528.76 8.53354L1527.99 9.17797C1523.62 3.99259 1517.19 1 1510.4 1V0V-1C1517.78 -1 1524.77 2.25281 1529.52 7.8891L1528.76 8.53354ZM1610.86 92.71V93.71C1603.49 93.71 1596.49 90.4572 1591.74 84.8209L1592.51 84.1764L1593.27 83.532C1597.64 88.7174 1604.08 91.71 1610.86 91.71V92.71ZM1762 116.71H1761C1761 104.007 1750.7 93.71 1738 93.71V92.71V91.71C1751.81 91.71 1763 102.903 1763 116.71H1762Z" fill="#343434" mask="url(#path-1-inside-1_984_227)"/>
</svg>
