<svg width="1762" height="554" viewBox="0 0 1762 554" fill="none" xmlns="http://www.w3.org/2000/svg">
<mask id="path-1-inside-1_593_241" fill="white">
<path d="M24 0C10.7452 0 3.14734e-06 10.7452 0 24V418C0 431.255 10.7452 442 24 442H783.781C790.858 442 797.573 445.123 802.133 450.533L882.141 545.467C886.701 550.877 893.417 554 900.493 554H1738C1751.25 554 1762 543.255 1762 530V24C1762 10.7453 1751.25 0.00026023 1738 0H24Z"/>
</mask>
<path d="M24 0C10.7452 0 3.14734e-06 10.7452 0 24V418C0 431.255 10.7452 442 24 442H783.781C790.858 442 797.573 445.123 802.133 450.533L882.141 545.467C886.701 550.877 893.417 554 900.493 554H1738C1751.25 554 1762 543.255 1762 530V24C1762 10.7453 1751.25 0.00026023 1738 0H24Z" fill="#FBFBFB"/>
<path d="M0 24L-1 24V24L0 24ZM1738 554L1738 555H1738V554ZM1762 530L1763 530L1763 530L1762 530ZM1738 0L1738 -1L1738 -1L1738 0ZM882.141 545.467L881.376 546.111L882.141 545.467ZM802.133 450.533L802.898 449.889L802.133 450.533ZM24 0V1C11.2975 1 1 11.2975 1 24L0 24L-1 24C-0.999997 10.1929 10.1929 -1 24 -1V0ZM0 24H1V418H0H-1V24H0ZM24 442V441H783.781V442V443H24V442ZM802.133 450.533L802.898 449.889L882.906 544.822L882.141 545.467L881.376 546.111L801.369 451.178L802.133 450.533ZM900.493 554V553H1738V554V555H900.493V554ZM1738 554L1738 553C1750.7 553 1761 542.702 1761 530L1762 530L1763 530C1763 543.807 1751.81 555 1738 555L1738 554ZM1762 530H1761V24H1762H1763V530H1762ZM1762 24H1761C1761 11.2976 1750.7 1.00025 1738 1L1738 0L1738 -1C1751.81 -0.999729 1763 10.193 1763 24H1762ZM1738 0V1H24V0V-1H1738V0ZM882.141 545.467L882.906 544.822C887.276 550.007 893.712 553 900.493 553V554V555C893.122 555 886.127 551.747 881.376 546.111L882.141 545.467ZM783.781 442V441C791.152 441 798.148 444.253 802.898 449.889L802.133 450.533L801.369 451.178C796.998 445.993 790.563 443 783.781 443V442ZM0 418H1C1 430.703 11.2975 441 24 441V442V443C10.1929 443 -1 431.807 -1 418H0Z" fill="#343434" mask="url(#path-1-inside-1_593_241)"/>
</svg>
