<svg width="425" height="205" viewBox="0 0 425 205" fill="none" xmlns="http://www.w3.org/2000/svg">
<mask id="path-1-inside-1_100_5378" fill="white">
<path d="M415.049 0C420.545 8.59006e-05 425 4.45534 425 9.95117V109.415C425 118.252 417.836 125.415 409 125.415H375.315C370.544 125.415 366.022 127.544 362.983 131.221L306.794 199.194C303.755 202.871 299.233 205 294.462 205H9.95105C4.45515 205 -0.000105062 200.545 -0.00012207 195.049V9.95117C-9.97464e-05 4.45528 4.45516 0 9.95105 0H415.049Z"/>
</mask>
<path d="M415.049 0L415.049 -1H415.049V0ZM425 9.95117H426V9.95117L425 9.95117ZM-0.00012207 195.049H-1.00012H-0.00012207ZM-0.00012207 9.95117L-1.00012 9.95117V9.95117H-0.00012207ZM306.794 199.194L306.024 198.557L306.794 199.194ZM362.983 131.221L363.754 131.858L362.983 131.221ZM415.049 0L415.049 1C419.992 1.00008 424 5.00764 424 9.95118L425 9.95117L426 9.95117C426 3.90304 421.097 -0.999905 415.049 -1L415.049 0ZM425 9.95117H424V109.415H425H426V9.95117H425ZM409 125.415V124.415H375.315V125.415V126.415H409V125.415ZM362.983 131.221L362.212 130.584L306.024 198.557L306.794 199.194L307.565 199.831L363.754 131.858L362.983 131.221ZM294.462 205V204H9.95105V205V206H294.462V205ZM9.95105 205V204C5.00744 204 0.999893 199.992 0.999878 195.049H-0.00012207H-1.00012C-1.0001 201.097 3.90287 206 9.95105 206V205ZM-0.00012207 195.049H0.999878V9.95117H-0.00012207H-1.00012V195.049H-0.00012207ZM-0.00012207 9.95117L0.999878 9.95118C0.999898 5.00757 5.00745 1 9.95105 1V0V-1C3.90287 -1 -1.0001 3.903 -1.00012 9.95117L-0.00012207 9.95117ZM9.95105 0V1H415.049V0V-1H9.95105V0ZM306.794 199.194L306.024 198.557C303.174 202.004 298.935 204 294.462 204V205V206C299.531 206 304.336 203.738 307.565 199.831L306.794 199.194ZM375.315 125.415V124.415C370.246 124.415 365.442 126.677 362.212 130.584L362.983 131.221L363.754 131.858C366.603 128.411 370.842 126.415 375.315 126.415V125.415ZM425 109.415H424C424 117.699 417.284 124.415 409 124.415V125.415V126.415C418.389 126.415 426 118.804 426 109.415H425Z" fill="black" fill-opacity="0.5" mask="url(#path-1-inside-1_100_5378)"/>
</svg>
