<svg width="820" height="205" viewBox="0 0 820 205" fill="none" xmlns="http://www.w3.org/2000/svg">
<mask id="path-1-inside-1_100_5375" fill="white">
<path d="M804 0C812.837 0 820 7.16344 820 16V109.415C820 118.252 812.837 125.415 804 125.415H773.315C768.545 125.415 764.023 127.544 760.983 131.221L704.795 199.194C701.755 202.871 697.233 205 692.463 205H16.0002C7.16369 205 0.000244141 197.837 0.000244141 189V16C0.000244141 7.16344 7.16369 0 16.0002 0H804Z"/>
</mask>
<path d="M704.795 199.194L705.565 199.831L704.795 199.194ZM760.983 131.221L760.212 130.584L760.983 131.221ZM804 0V1C812.285 1 819 7.71573 819 16H820H821C821 6.61116 813.389 -1 804 -1V0ZM820 16H819V109.415H820H821V16H820ZM804 125.415V124.415H773.315V125.415V126.415H804V125.415ZM760.983 131.221L760.212 130.584L704.024 198.557L704.795 199.194L705.565 199.831L761.754 131.858L760.983 131.221ZM692.463 205V204H16.0002V205V206H692.463V205ZM16.0002 205V204C7.71597 204 1.00024 197.284 1.00024 189H0.000244141H-0.999756C-0.999756 198.389 6.6114 206 16.0002 206V205ZM0.000244141 189H1.00024V16H0.000244141H-0.999756V189H0.000244141ZM0.000244141 16H1.00024C1.00024 7.71573 7.71597 1 16.0002 1V0V-1C6.6114 -1 -0.999756 6.61116 -0.999756 16H0.000244141ZM16.0002 0V1H804V0V-1H16.0002V0ZM704.795 199.194L704.024 198.557C701.174 202.004 696.935 204 692.463 204V205V206C697.531 206 702.336 203.738 705.565 199.831L704.795 199.194ZM773.315 125.415V124.415C768.246 124.415 763.442 126.677 760.212 130.584L760.983 131.221L761.754 131.858C764.603 128.411 768.843 126.415 773.315 126.415V125.415ZM820 109.415H819C819 117.699 812.285 124.415 804 124.415V125.415V126.415C813.389 126.415 821 118.804 821 109.415H820Z" fill="black" fill-opacity="0.5" mask="url(#path-1-inside-1_100_5375)"/>
</svg>
