<svg width="564" height="172" viewBox="0 0 564 172" fill="none" xmlns="http://www.w3.org/2000/svg">
<mask id="mask0_889_453" style="mask-type:alpha" maskUnits="userSpaceOnUse" x="0" y="0" width="564" height="172">
<rect width="564" height="172" fill="#D9D9D9"/>
</mask>
<g mask="url(#mask0_889_453)">
<mask id="path-2-inside-1_889_453" fill="white">
<path d="M550.794 -100C558.087 -100 564 -94.0873 564 -86.7939V45.1997C564 56.9263 554.494 66.4326 542.767 66.4326H498.065C491.734 66.4326 485.733 69.2578 481.699 74.1375L407.135 164.342C403.101 169.222 397.1 172.047 390.769 172.047H13.2061C5.91266 172.047 0 166.134 0 158.841V-86.7939C0 -94.0873 5.91266 -100 13.2061 -100H550.794Z"/>
</mask>
<path d="M550.794 -100C558.087 -100 564 -94.0873 564 -86.7939V45.1997C564 56.9263 554.494 66.4326 542.767 66.4326H498.065C491.734 66.4326 485.733 69.2578 481.699 74.1375L407.135 164.342C403.101 169.222 397.1 172.047 390.769 172.047H13.2061C5.91266 172.047 0 166.134 0 158.841V-86.7939C0 -94.0873 5.91266 -100 13.2061 -100H550.794Z" fill="#FBFBFB"/>
<path d="M407.135 164.342L406.112 163.496L407.135 164.342ZM550.794 -100V-98.6729C557.354 -98.6729 562.673 -93.3544 562.673 -86.7939H564H565.327C565.327 -94.8203 558.82 -101.327 550.794 -101.327V-100ZM564 -86.7939H562.673V45.1997H564H565.327V-86.7939H564ZM542.767 66.4326V65.1056H498.065V66.4326V67.7597H542.767V66.4326ZM481.699 74.1375L480.676 73.292L406.112 163.496L407.135 164.342L408.157 165.187L482.722 74.983L481.699 74.1375ZM390.769 172.047V170.72H13.2061V172.047V173.374H390.769V172.047ZM13.2061 172.047V170.72C6.64558 170.72 1.32706 165.401 1.32706 158.841H0H-1.32706C-1.32706 166.867 5.17975 173.374 13.2061 173.374V172.047ZM0 158.841H1.32706V-86.7939H0H-1.32706V158.841H0ZM0 -86.7939H1.32706C1.32706 -93.3544 6.64558 -98.6729 13.2061 -98.6729V-100V-101.327C5.17975 -101.327 -1.32706 -94.8203 -1.32706 -86.7939H0ZM13.2061 -100V-98.6729H550.794V-100V-101.327H13.2061V-100ZM407.135 164.342L406.112 163.496C402.33 168.071 396.704 170.72 390.769 170.72V172.047V173.374C397.496 173.374 403.872 170.372 408.157 165.187L407.135 164.342ZM498.065 66.4326V65.1056C491.338 65.1056 484.962 68.1073 480.676 73.292L481.699 74.1375L482.722 74.983C486.504 70.4083 492.129 67.7597 498.065 67.7597V66.4326ZM564 45.1997H562.673C562.673 56.1934 553.761 65.1056 542.767 65.1056V66.4326V67.7597C555.227 67.7597 565.327 57.6592 565.327 45.1997H564Z" fill="black" fill-opacity="0.5" mask="url(#path-2-inside-1_889_453)"/>
</g>
</svg>
