<svg width="415" height="528" viewBox="0 0 415 528" fill="none" xmlns="http://www.w3.org/2000/svg">
<mask id="path-1-inside-1_323_2554" fill="white">
<path d="M383 0C400.673 0 415 14.3269 415 32V456C415 469.255 404.255 480 391 480H330.114C323.836 480 317.808 482.46 313.323 486.852L278.296 521.148C273.811 525.54 267.783 528 261.505 528H32C14.3269 528 0 513.673 0 496V32C1.41746e-06 14.3269 14.3269 2.58282e-05 32 0H383Z"/>
</mask>
<path d="M415 32H416H415ZM32 528L32 529H32V528ZM0 32H-1H0ZM32 0V-1H32L32 0ZM278.296 521.148L278.996 521.863L278.296 521.148ZM313.323 486.852L314.022 487.566L313.323 486.852ZM383 0V1C400.121 1 414 14.8792 414 32H415H416C416 13.7746 401.225 -1 383 -1V0ZM415 32H414V456H415H416V32H415ZM391 480V479H330.114V480V481H391V480ZM313.323 486.852L312.623 486.137L277.597 520.434L278.296 521.148L278.996 521.863L314.022 487.566L313.323 486.852ZM261.505 528V527H32V528V529H261.505V528ZM32 528V527C14.8792 527 1 513.121 1 496H0H-1C-1 514.225 13.7746 529 32 529L32 528ZM0 496H1V32H0H-1V496H0ZM0 32H1C1 14.8792 14.8792 1.00003 32 1V0L32 -1C13.7746 -0.999973 -0.999999 13.7746 -1 32H0ZM32 0V1H383V0V-1H32V0ZM278.296 521.148L277.597 520.434C273.298 524.643 267.522 527 261.505 527V528V529C268.045 529 274.324 526.438 278.996 521.863L278.296 521.148ZM330.114 480V479C323.574 479 317.296 481.562 312.623 486.137L313.323 486.852L314.022 487.566C318.321 483.357 324.098 481 330.114 481V480ZM415 456H414C414 468.703 403.703 479 391 479V480V481C404.807 481 416 469.807 416 456H415Z" fill="black" mask="url(#path-1-inside-1_323_2554)"/>
</svg>
