<svg width="472" height="573" viewBox="0 0 472 573" fill="none" xmlns="http://www.w3.org/2000/svg">
<mask id="path-1-inside-1_1350_709" fill="white">
<path d="M440.001 0C457.674 0.000255993 472.001 14.327 472.001 32V510C472.001 523.255 461.256 534 448.001 534H297.115C290.837 534 284.809 536.46 280.324 540.852L254.489 566.148C250.003 570.54 243.975 573 237.698 573H32C14.3271 573 0.000984587 558.673 0.000976562 541V32C0.000976562 14.3269 14.3279 0 32.001 0H440.001Z"/>
</mask>
<path d="M440.001 0V-1V0ZM32 573L32 574H32V573ZM0.000976562 541H-0.999023H0.000976562ZM254.489 566.148L255.188 566.863L254.489 566.148ZM280.324 540.852L279.624 540.137L280.324 540.852ZM440.001 0V1C457.122 1.00025 471.001 14.8793 471.001 32H472.001H473.001C473.001 13.7747 458.226 -0.999736 440.001 -1V0ZM472.001 32H471.001V510H472.001H473.001V32H472.001ZM448.001 534V533H297.115V534V535H448.001V534ZM280.324 540.852L279.624 540.137L253.789 565.434L254.489 566.148L255.188 566.863L281.023 541.566L280.324 540.852ZM237.698 573V572H32V573V574H237.698V573ZM32 573L32 572C14.8794 572 1.00098 558.121 1.00098 541H0.000976562H-0.999023C-0.999015 559.225 13.7748 574 32 574L32 573ZM0.000976562 541H1.00098V32H0.000976562H-0.999023V541H0.000976562ZM0.000976562 32H1.00098C1.00098 14.8792 14.8801 1 32.001 1V0V-1C13.7756 -1 -0.999023 13.7746 -0.999023 32H0.000976562ZM32.001 0V1H440.001V0V-1H32.001V0ZM254.489 566.148L253.789 565.434C249.491 569.643 243.714 572 237.698 572V573V574C244.237 574 250.516 571.438 255.188 566.863L254.489 566.148ZM297.115 534V533C290.575 533 284.297 535.562 279.624 540.137L280.324 540.852L281.023 541.566C285.322 537.357 291.099 535 297.115 535V534ZM472.001 510H471.001C471.001 522.703 460.704 533 448.001 533V534V535C461.808 535 473.001 523.807 473.001 510H472.001Z" fill="#343434" mask="url(#path-1-inside-1_1350_709)"/>
</svg>
