<svg width="21" height="21" viewBox="0 0 21 21" fill="none" xmlns="http://www.w3.org/2000/svg">
<path d="M19.5 10.5002C19.5 8.61964 18.911 6.78634 17.8157 5.25775C16.7203 3.72916 15.1736 2.58208 13.3929 1.97762C11.6122 1.37315 9.68684 1.34166 7.8873 1.88758C6.08776 2.43349 4.50442 3.52939 3.35967 5.02134C2.21492 6.51329 1.56627 8.32635 1.50481 10.2059C1.44335 12.0854 1.97218 13.937 3.01702 15.5005C4.06186 17.064 5.57023 18.261 7.33026 18.9233C9.0903 19.5857 11.0136 19.68 12.83 19.1932" stroke="#343434" stroke-width="2" stroke-linecap="round"/>
<path d="M10.5 14.5C12.7091 14.5 14.5 12.7091 14.5 10.5C14.5 8.29086 12.7091 6.5 10.5 6.5C8.29086 6.5 6.5 8.29086 6.5 10.5C6.5 12.7091 8.29086 14.5 10.5 14.5Z" stroke="#343434" stroke-width="2"/>
<path d="M14.5 7.5V12C14.5 12.663 14.7634 13.2989 15.2322 13.7678C15.7011 14.2366 16.337 14.5 17 14.5C17.663 14.5 18.2989 14.2366 18.7678 13.7678C19.2366 13.2989 19.5 12.663 19.5 12V10.5" stroke="#343434" stroke-width="2" stroke-linecap="round"/>
</svg>
