<svg width="34" height="34" viewBox="0 0 34 34" fill="none" xmlns="http://www.w3.org/2000/svg">
<rect x="0.591814" y="0.591814" width="31.958" height="31.958" rx="7.40819" stroke="#D2D2D2" stroke-width="1.18363"/>
<path d="M13.1575 8.2854C10.483 8.2854 8.28516 10.4803 8.28516 13.1578V19.9838C8.28516 22.6583 10.4801 24.8562 13.1575 24.8562H19.9836C22.6581 24.8562 24.856 22.6613 24.856 19.9838V13.1578C24.856 10.4833 22.661 8.2854 19.9836 8.2854H13.1575ZM13.1575 9.79184H19.9836C21.846 9.79184 23.3495 11.2953 23.3495 13.1578V19.9838C23.3495 21.8463 21.846 23.3498 19.9836 23.3498H13.1575C11.2951 23.3498 9.79159 21.8463 9.79159 19.9838V13.1578C9.79159 11.2953 11.2951 9.79184 13.1575 9.79184ZM21.0192 11.4395C20.6397 11.4395 20.3366 11.7426 20.3366 12.1221C20.3366 12.5017 20.6397 12.8047 21.0192 12.8047C21.3988 12.8047 21.7019 12.5017 21.7019 12.1221C21.7019 11.7426 21.3988 11.4395 21.0192 11.4395ZM16.5706 12.0515C14.0843 12.0515 12.0512 14.0846 12.0512 16.5708C12.0512 19.057 14.0843 21.0901 16.5706 21.0901C19.0568 21.0901 21.0899 19.057 21.0899 16.5708C21.0899 14.0846 19.0568 12.0515 16.5706 12.0515ZM16.5706 13.5579C18.2447 13.5579 19.5834 14.8967 19.5834 16.5708C19.5834 18.2449 18.2447 19.5837 16.5706 19.5837C14.8964 19.5837 13.5577 18.2449 13.5577 16.5708C13.5577 14.8967 14.8964 13.5579 16.5706 13.5579Z" fill="#D2D2D2"/>
</svg>
