<svg width="0" height="0" class="hidden">
  <symbol fill="none" xmlns="http://www.w3.org/2000/svg" viewBox="0 0 34 34" id="icon-in">
    <path d="M26.7392 4.22217C27.4858 4.22217 28.2017 4.51873 28.7296 5.04661C29.2575 5.57449 29.554 6.29045 29.554 7.03698V26.7407C29.554 27.4872 29.2575 28.2032 28.7296 28.7311C28.2017 29.2589 27.4858 29.5555 26.7392 29.5555H7.03552C6.28898 29.5555 5.57302 29.2589 5.04514 28.7311C4.51726 28.2032 4.2207 27.4872 4.2207 26.7407V7.03698C4.2207 6.29045 4.51726 5.57449 5.04514 5.04661C5.57302 4.51873 6.28898 4.22217 7.03552 4.22217H26.7392ZM26.0355 26.037V18.5777C26.0355 17.3609 25.5521 16.1939 24.6917 15.3334C23.8312 14.473 22.6642 13.9896 21.4474 13.9896C20.2511 13.9896 18.8577 14.7214 18.1822 15.8192V14.257H14.2555V26.037H18.1822V19.0985C18.1822 18.0148 19.0548 17.1281 20.1385 17.1281C20.6611 17.1281 21.1622 17.3357 21.5317 17.7052C21.9013 18.0747 22.1089 18.5759 22.1089 19.0985V26.037H26.0355ZM9.68144 12.0474C10.3085 12.0474 10.9099 11.7982 11.3534 11.3548C11.7968 10.9114 12.0459 10.31 12.0459 9.68291C12.0459 8.37402 10.9903 7.30439 9.68144 7.30439C9.05062 7.30439 8.44564 7.55498 7.99958 8.00104C7.55352 8.4471 7.30293 9.05209 7.30293 9.68291C7.30293 10.9918 8.37256 12.0474 9.68144 12.0474ZM11.6377 26.037V14.257H7.73922V26.037H11.6377Z" fill="#343434"></path>
  </symbol>
</svg>