<svg width="34" height="33" viewBox="0 0 34 33" fill="none" xmlns="http://www.w3.org/2000/svg">
<rect x="0.546866" y="0.546866" width="32.6995" height="31.9063" rx="6.84554" stroke="#D2D2D2" stroke-width="1.09373"/>
<path d="M11.1283 12.6853C10.0854 12.6853 9.24072 11.9151 9.24072 10.9638C9.24072 10.0118 10.0854 9.24048 11.1283 9.24048C12.1702 9.24048 13.0148 10.0118 13.0148 10.9638C13.0148 11.9151 12.1702 12.6853 11.1283 12.6853ZM9.67312 23.7595V13.9969H13.0581V23.7595H9.67312ZM17.8089 18.3297V23.6348H14.4295V13.8722H17.8089V15.1865C18.6981 14.0383 19.4708 13.5645 20.8717 13.5645C22.2738 13.5645 24.553 14.2292 24.553 18.085V23.6348H21.1831V18.3029C21.1831 17.2101 20.8717 16.1153 19.6052 16.1153C18.3386 16.1153 17.8089 17.2101 17.8089 18.3297Z" fill="#D2D2D2"/>
</svg>
