<svg width="0" height="0" class="hidden">
  <symbol fill="none" xmlns="http://www.w3.org/2000/svg" viewBox="0 0 2408 62" id="logo-frame">
    <path d="M42.3579 51.0163L42.3603 44.7381L52.4359 44.742L52.4467 16.7938L42.3712 16.7899L42.3736 10.5117L69.1067 10.5221L69.1042 16.8003L59.0287 16.7964L59.0179 44.7446L69.0934 44.7485L69.091 51.0267L42.3579 51.0163ZM77.4043 51.0299L77.4084 40.3975L98.1761 17.2166L98.1763 16.5584L77.4177 16.5504L77.42 10.5253L102.938 10.5352L102.934 21.1677L82.1662 44.3485L82.1659 45.0067L102.925 45.0148L102.922 51.0398L77.4043 51.0299ZM111.236 51.0431L111.238 44.7648L121.314 44.7688L121.324 16.8205L111.249 16.8166L111.251 10.5384L137.984 10.5488L137.982 16.827L127.906 16.8231L127.896 44.7713L137.971 44.7752L137.969 51.0534L111.236 51.0431ZM187.015 10.5678L189.588 34.1121L190.241 45.96L190.95 45.9603L193.644 20.4434L201.947 20.4466L204.418 45.9655L205.127 45.9658L205.84 34.1185L208.482 10.5762L214.254 10.5784L209.631 51.0812L200.568 51.0777L197.945 24.9512L197.287 24.951L194.442 51.0754L185.429 51.0719L180.838 10.5654L187.015 10.5678ZM221.843 51.086L221.859 10.5813L246.617 10.591L246.615 16.616L228.489 16.609L228.485 27.8997L244.079 27.9057L244.077 33.627L228.482 33.6209L228.478 45.0635L246.097 45.0703L246.095 51.0954L221.843 51.086ZM256.383 51.0994L256.399 10.5947L269.208 10.5997C273.326 10.6013 276.549 11.5814 278.878 13.5401C281.24 15.4987 282.42 18.1826 282.419 21.5917C282.418 23.5157 281.911 25.1863 280.898 26.6036C279.885 28.0209 278.483 29.0329 276.694 29.6398L276.694 30.4499C278.753 31.1258 280.339 32.2909 281.452 33.9453C282.599 35.5997 283.172 37.5576 283.171 39.8191C283.17 43.3295 281.92 46.0968 279.421 48.1211C276.956 50.1116 273.564 51.1061 269.243 51.1044L256.383 51.0994ZM263.018 44.925L269.195 44.9274C271.592 44.9283 273.414 44.4396 274.664 43.4612C275.913 42.4491 276.538 41.0486 276.539 39.2596C276.539 37.4369 275.915 36.0359 274.667 35.0565C273.418 34.0434 271.596 33.5364 269.199 33.5355L263.022 33.5331L263.018 44.925ZM263.025 27.7612L269.151 27.7635C271.413 27.7644 273.134 27.2925 274.316 26.3479C275.531 25.4032 276.14 24.0533 276.14 22.2981C276.141 20.5092 275.534 19.1419 274.319 18.1963C273.138 17.2508 271.417 16.7775 269.155 16.7767L263.029 16.7743L263.025 27.7612Z" fill="#CECECE"></path>
    <path d="M302.3 30.3733C302.356 30.2074 302.356 30.0276 302.3 29.8616L299.06 20.1759C298.801 19.3986 299.733 18.7785 300.344 19.3225L311.745 29.5231C311.829 29.5981 311.896 29.6902 311.942 29.7934C311.988 29.8965 312.012 30.0082 312.012 30.1213C312.012 30.2343 311.988 30.346 311.942 30.4491C311.896 30.5522 311.828 30.6442 311.744 30.7192L300.335 40.911C299.724 41.4545 298.793 40.8336 299.054 40.0565L302.3 30.3733Z" fill="#CECECE"></path>
    <path d="M318.3 30.3792C318.356 30.2133 318.356 30.0335 318.3 29.8675L315.06 20.1818C314.801 19.4045 315.733 18.7844 316.344 19.3283L327.745 29.5289C327.829 29.604 327.896 29.6961 327.942 29.7992C327.988 29.9023 328.012 30.0141 328.012 30.1271C328.012 30.2401 327.988 30.3519 327.942 30.455C327.896 30.558 327.828 30.6501 327.744 30.7251L316.335 40.9168C315.724 41.4603 314.793 40.8395 315.054 40.0624L318.3 30.3792Z" fill="#CECECE"></path>
    <path d="M153.559 24.4096C153.71 24.3321 153.829 24.2132 153.896 24.0711L157.829 15.7883C158.145 15.1242 159.255 15.2528 159.357 15.9656L161.232 29.3084C161.245 29.4067 161.235 29.5065 161.202 29.6014C161.169 29.6962 161.114 29.7839 161.039 29.8587C160.965 29.9335 160.873 29.9936 160.771 30.0352C160.668 30.0767 160.557 30.0987 160.444 30.0997L145.147 30.2469C144.329 30.2534 144.036 29.3039 144.744 28.9406L153.559 24.4096Z" fill="#CECECE"></path>
    <path d="M163.733 24.4135C163.582 24.3358 163.464 24.2168 163.397 24.0747L159.471 15.7888C159.155 15.1245 158.045 15.2522 157.942 15.965L156.057 29.3063C156.043 29.4045 156.053 29.5044 156.086 29.5993C156.119 29.6941 156.175 29.7819 156.249 29.8567C156.324 29.9316 156.415 29.9918 156.518 30.0334C156.62 30.075 156.731 30.0971 156.844 30.0982L172.141 30.2572C172.959 30.2643 173.252 29.3151 172.545 28.9513L163.733 24.4135Z" fill="#CECECE"></path>
    <path d="M163.729 34.7134C163.578 34.7909 163.46 34.9099 163.392 35.0519L159.46 43.3348C159.143 43.9988 158.034 43.8703 157.932 43.1574L156.057 29.8146C156.043 29.7164 156.053 29.6165 156.086 29.5217C156.119 29.4268 156.175 29.3391 156.249 29.2643C156.324 29.1896 156.415 29.1294 156.518 29.0879C156.62 29.0463 156.732 29.0244 156.844 29.0234L172.142 28.8762C172.959 28.8697 173.252 29.8191 172.544 30.1824L163.729 34.7134Z" fill="#CECECE"></path>
    <path d="M153.555 34.7096C153.706 34.7872 153.825 34.9063 153.892 35.0484L157.818 43.3343C158.134 43.9986 159.244 43.8709 159.346 43.1581L161.231 29.8168C161.245 29.7185 161.235 29.6187 161.202 29.5238C161.169 29.4289 161.114 29.3411 161.039 29.2663C160.965 29.1915 160.874 29.1313 160.771 29.0897C160.669 29.048 160.557 29.026 160.445 29.0249L145.147 28.8658C144.33 28.8587 144.036 29.8079 144.744 30.1718L153.555 34.7096Z" fill="#CECECE"></path>
    <path d="M25.7236 29.7541C25.6678 29.92 25.6677 30.0998 25.7234 30.2658L28.9633 39.9515C29.2221 40.7288 28.2901 41.3489 27.6798 40.805L16.2787 30.6044C16.1947 30.5293 16.1274 30.4372 16.0814 30.3341C16.0353 30.231 16.0116 30.1192 16.0116 30.0062C16.0116 29.8932 16.0355 29.7814 16.0816 29.6783C16.1278 29.5753 16.1951 29.4832 16.2792 29.4082L27.6882 19.2165C28.2989 18.673 29.2304 19.2938 28.9694 20.0709L25.7236 29.7541Z" fill="#CECECE"></path>
    <path d="M9.72362 29.7477C9.66782 29.9137 9.66775 30.0935 9.72342 30.2595L12.9633 39.9452C13.2221 40.7225 12.2901 41.3426 11.6798 40.7986L0.278722 30.598C0.194686 30.523 0.127426 30.4309 0.0813811 30.3277C0.0353358 30.2246 0.0115507 30.1129 0.0115945 29.9998C0.0116384 29.8868 0.0355103 29.7751 0.0816357 29.672C0.127761 29.5689 0.195092 29.4768 0.279186 29.4019L11.6882 19.2101C12.2989 18.6666 13.2304 19.2875 12.9694 20.0646L9.72362 29.7477Z" fill="#CECECE"></path>
    <path d="M364.659 23.4024C364.821 23.4545 364.988 23.4541 365.136 23.4012L373.774 20.3251C374.467 20.0793 375.161 20.955 374.729 21.531L366.62 32.2915C366.56 32.3708 366.483 32.4344 366.392 32.478C366.302 32.5216 366.2 32.5443 366.095 32.5446C365.989 32.5448 365.882 32.5227 365.78 32.4795C365.678 32.4364 365.584 32.3732 365.504 32.2943L354.583 21.5815C354 21.008 354.464 20.1294 355.222 20.3731L364.659 23.4024Z" fill="#CECECE"></path>
    <path d="M371.85 30.5996C371.799 30.4378 371.799 30.27 371.852 30.122L374.935 21.4868C375.181 20.7937 374.306 20.0991 373.73 20.5308L362.963 28.6315C362.884 28.6911 362.82 28.7687 362.776 28.8592C362.733 28.9497 362.71 29.051 362.709 29.1565C362.709 29.262 362.731 29.3692 362.774 29.4711C362.817 29.573 362.88 29.6673 362.959 29.7478L373.664 40.677C374.237 41.2601 375.116 40.7966 374.872 40.039L371.85 30.5996Z" fill="#CECECE"></path>
    <path d="M364.564 37.8798C364.403 37.8277 364.235 37.8281 364.087 37.881L355.449 40.9571C354.756 41.2029 354.062 40.3272 354.494 39.7512L362.603 28.9908C362.663 28.9114 362.741 28.8479 362.831 28.8042C362.922 28.7606 363.023 28.7379 363.128 28.7377C363.234 28.7374 363.341 28.7596 363.443 28.8027C363.545 28.8459 363.639 28.909 363.719 28.988L374.64 39.7007C375.223 40.2742 374.759 41.1528 374.002 40.9091L364.564 37.8798Z" fill="#CECECE"></path>
    <path d="M357.373 30.6832C357.425 30.8449 357.424 31.0127 357.371 31.1607L354.288 39.7959C354.042 40.489 354.917 41.1836 355.493 40.7519L366.26 32.6512C366.34 32.5916 366.403 32.514 366.447 32.4235C366.491 32.333 366.513 32.2317 366.514 32.1262C366.514 32.0208 366.492 31.9135 366.449 31.8116C366.406 31.7097 366.343 31.6154 366.264 31.535L355.56 20.6057C354.987 20.0226 354.108 20.4861 354.351 21.2437L357.373 30.6832Z" fill="#CECECE"></path>
    <path d="M443.558 51.1721L443.561 44.8939L453.636 44.8978L453.647 16.9496L443.571 16.9457L443.574 10.6675L470.307 10.6778L470.304 16.956L460.229 16.9521L460.218 44.9003L470.294 44.9043L470.291 51.1825L443.558 51.1721ZM478.604 51.1857L478.609 40.5532L499.376 17.3724L499.377 16.7142L478.618 16.7061L478.62 10.6811L504.138 10.691L504.134 21.3234L483.366 44.5043L483.366 45.1625L504.125 45.1705L504.122 51.1956L478.604 51.1857ZM512.436 51.1988L512.438 44.9206L522.514 44.9245L522.525 16.9763L512.449 16.9724L512.451 10.6942L539.185 10.7046L539.182 16.9828L529.107 16.9789L529.096 44.9271L539.171 44.931L539.169 51.2092L512.436 51.1988ZM588.215 10.7236L590.788 34.2679L591.442 46.1158L592.15 46.116L594.844 20.5992L603.147 20.6024L605.618 46.1213L606.327 46.1215L607.04 34.2742L609.682 10.7319L615.454 10.7342L610.831 51.237L601.768 51.2335L599.146 25.107L598.487 25.1067L595.642 51.2311L586.63 51.2276L582.038 10.7212L588.215 10.7236ZM623.043 51.2417L623.059 10.7371L647.817 10.7467L647.815 16.7718L629.689 16.7647L629.685 28.0554L645.279 28.0615L645.277 33.7827L629.682 33.7767L629.678 45.2193L647.298 45.2261L647.295 51.2512L623.043 51.2417ZM657.583 51.2552L657.599 10.7505L670.408 10.7555C674.526 10.7571 677.75 11.7372 680.078 13.6958C682.44 15.6545 683.62 18.3384 683.619 21.7475C683.618 23.6715 683.111 25.3421 682.098 26.7594C681.085 28.1766 679.684 29.1887 677.894 29.7956L677.894 30.6057C679.953 31.2815 681.539 32.4467 682.652 34.101C683.799 35.7554 684.372 37.7134 684.371 39.9749C684.37 43.4853 683.12 46.2526 680.621 48.2769C678.157 50.2674 674.764 51.2618 670.443 51.2601L657.583 51.2552ZM664.218 45.0808L670.395 45.0832C672.792 45.0841 674.615 44.5954 675.864 43.617C677.113 42.6049 677.738 41.2043 677.739 39.4154C677.74 37.5927 677.116 36.1916 675.867 35.2123C674.619 34.1992 672.796 33.6922 670.4 33.6912L664.223 33.6888L664.218 45.0808ZM664.225 27.9169L670.351 27.9193C672.613 27.9202 674.334 27.4483 675.516 26.5036C676.732 25.559 677.34 24.2091 677.34 22.4539C677.341 20.6649 676.734 19.2977 675.519 18.3521C674.338 17.4065 672.617 16.9333 670.355 16.9324L664.229 16.93L664.225 27.9169Z" fill="#CECECE"></path>
    <path d="M703.5 30.5291C703.555 30.3632 703.555 30.1834 703.5 30.0174L700.26 20.3317C700.001 19.5544 700.933 18.9343 701.543 19.4782L712.944 29.6788C713.028 29.7539 713.096 29.846 713.142 29.9491C713.188 30.0522 713.212 30.164 713.212 30.277C713.212 30.39 713.188 30.5018 713.142 30.6049C713.095 30.7079 713.028 30.8 712.944 30.875L701.535 41.0667C700.924 41.6102 699.993 40.9894 700.254 40.2123L703.5 30.5291Z" fill="#CECECE"></path>
    <path d="M719.5 30.5355C719.555 30.3695 719.555 30.1897 719.5 30.0237L716.26 20.338C716.001 19.5607 716.933 18.9406 717.543 19.4846L728.944 29.6852C729.028 29.7602 729.096 29.8524 729.142 29.9555C729.188 30.0586 729.212 30.1703 729.212 30.2834C729.212 30.3964 729.188 30.5081 729.142 30.6112C729.095 30.7143 729.028 30.8064 728.944 30.8813L717.535 41.0731C716.924 41.6166 715.993 40.9957 716.254 40.2187L719.5 30.5355Z" fill="#CECECE"></path>
    <path d="M554.759 24.5659C554.91 24.4883 555.029 24.3694 555.096 24.2274L559.028 15.9445C559.345 15.2805 560.455 15.409 560.556 16.1219L562.431 29.4647C562.445 29.5629 562.435 29.6628 562.402 29.7576C562.369 29.8525 562.313 29.9402 562.239 30.015C562.164 30.0897 562.073 30.1499 561.97 30.1914C561.868 30.2329 561.757 30.2549 561.644 30.2559L546.347 30.4031C545.529 30.4096 545.236 29.4601 545.944 29.0969L554.759 24.5659Z" fill="#CECECE"></path>
    <path d="M564.933 24.5702C564.782 24.4925 564.664 24.3735 564.596 24.2314L560.67 15.9455C560.354 15.2812 559.244 15.4089 559.142 16.1217L557.257 29.463C557.243 29.5613 557.253 29.6611 557.286 29.756C557.319 29.8509 557.375 29.9386 557.449 30.0135C557.523 30.0883 557.615 30.1485 557.717 30.1901C557.82 30.2317 557.931 30.2538 558.044 30.2549L573.341 30.414C574.158 30.4211 574.452 29.4719 573.745 29.108L564.933 24.5702Z" fill="#CECECE"></path>
    <path d="M564.93 34.8701C564.778 34.9477 564.66 35.0666 564.593 35.2087L560.66 43.4915C560.344 44.1556 559.234 44.027 559.132 43.3141L557.257 29.9714C557.243 29.8731 557.253 29.7733 557.286 29.6784C557.32 29.5836 557.375 29.4958 557.45 29.4211C557.524 29.3463 557.616 29.2862 557.718 29.2446C557.821 29.2031 557.932 29.1811 558.045 29.1801L573.342 29.0329C574.159 29.0264 574.452 29.9759 573.745 30.3392L564.93 34.8701Z" fill="#CECECE"></path>
    <path d="M554.755 34.8663C554.906 34.944 555.024 35.063 555.091 35.2051L559.017 43.491C559.333 44.1553 560.443 44.0276 560.545 43.3148L562.431 29.9735C562.445 29.8753 562.435 29.7754 562.402 29.6805C562.368 29.5856 562.313 29.4979 562.239 29.4231C562.164 29.3482 562.073 29.288 561.97 29.2464C561.868 29.2048 561.757 29.1827 561.644 29.1816L546.347 29.0225C545.529 29.0154 545.235 29.9647 545.943 30.3285L554.755 34.8663Z" fill="#CECECE"></path>
    <path d="M426.923 29.9099C426.868 30.0758 426.867 30.2556 426.923 30.4216L430.163 40.1073C430.422 40.8846 429.49 41.5047 428.88 40.9607L417.478 30.7601C417.394 30.6851 417.327 30.593 417.281 30.4898C417.235 30.3867 417.211 30.275 417.211 30.1619C417.211 30.0489 417.235 29.9372 417.281 29.8341C417.327 29.731 417.395 29.639 417.479 29.564L428.888 19.3722C429.499 18.8287 430.43 19.4496 430.169 20.2267L426.923 29.9099Z" fill="#CECECE"></path>
    <path d="M410.923 29.904C410.868 30.0699 410.867 30.2497 410.923 30.4157L414.163 40.1014C414.422 40.8787 413.49 41.4988 412.88 40.9549L401.478 30.7543C401.394 30.6792 401.327 30.5871 401.281 30.484C401.235 30.3809 401.211 30.2691 401.211 30.1561C401.211 30.0431 401.235 29.9313 401.281 29.8282C401.327 29.7252 401.395 29.6331 401.479 29.5581L412.888 19.3664C413.499 18.8229 414.43 19.4437 414.169 20.2208L410.923 29.904Z" fill="#CECECE"></path>
    <path d="M765.859 23.5582C766.021 23.6103 766.188 23.6099 766.336 23.557L774.974 20.4809C775.667 20.2351 776.361 21.1108 775.929 21.6868L767.82 32.4472C767.76 32.5265 767.683 32.5901 767.592 32.6337C767.502 32.6774 767.4 32.7001 767.295 32.7003C767.189 32.7006 767.082 32.6784 766.98 32.6353C766.878 32.5921 766.784 32.529 766.704 32.45L755.783 21.7373C755.2 21.1638 755.664 20.2852 756.422 20.5289L765.859 23.5582Z" fill="#CECECE"></path>
    <path d="M773.051 30.7553C772.999 30.5935 772.999 30.4258 773.052 30.2778L776.135 21.6426C776.381 20.9494 775.506 20.2549 774.93 20.6865L764.163 28.7873C764.084 28.8469 764.02 28.9245 763.976 29.0149C763.933 29.1054 763.91 29.2068 763.91 29.3122C763.909 29.4177 763.931 29.525 763.974 29.6269C764.018 29.7288 764.081 29.8231 764.159 29.9035L774.864 40.8328C775.437 41.4159 776.316 40.9524 776.073 40.1948L773.051 30.7553Z" fill="#CECECE"></path>
    <path d="M765.764 38.0355C765.602 37.9835 765.435 37.9839 765.287 38.0367L756.649 41.1129C755.956 41.3587 755.262 40.483 755.694 39.9069L763.803 29.1465C763.863 29.0672 763.94 29.0036 764.031 28.96C764.121 28.9164 764.223 28.8937 764.328 28.8934C764.434 28.8932 764.541 28.9153 764.643 28.9585C764.745 29.0016 764.839 29.0648 764.919 29.1437L775.84 39.8565C776.423 40.43 775.959 41.3086 775.201 41.0649L765.764 38.0355Z" fill="#CECECE"></path>
    <path d="M758.573 30.8389C758.625 31.0007 758.625 31.1685 758.572 31.3165L755.489 39.9517C755.243 40.6448 756.118 41.3394 756.694 40.9077L767.461 32.807C767.54 32.7474 767.604 32.6698 767.648 32.5793C767.691 32.4888 767.714 32.3875 767.714 32.282C767.715 32.1765 767.693 32.0693 767.65 31.9674C767.606 31.8654 767.543 31.7712 767.465 31.6907L756.76 20.7615C756.187 20.1784 755.308 20.6419 755.551 21.3995L758.573 30.8389Z" fill="#CECECE"></path>
    <path d="M844.758 51.3279L844.761 45.0496L854.836 45.0535L854.847 17.1053L844.772 17.1014L844.774 10.8232L871.507 10.8336L871.505 17.1118L861.429 17.1079L861.418 45.0561L871.494 45.06L871.491 51.3382L844.758 51.3279ZM879.805 51.3415L879.809 40.709L900.576 17.5281L900.577 16.8699L879.818 16.8619L879.82 10.8368L905.338 10.8467L905.334 21.4792L884.567 44.66L884.566 45.3182L905.325 45.3263L905.323 51.3514L879.805 51.3415ZM913.636 51.3546L913.638 45.0764L923.714 45.0803L923.725 17.1321L913.649 17.1282L913.652 10.8499L940.385 10.8603L940.382 17.1385L930.307 17.1346L930.296 45.0828L940.371 45.0867L940.369 51.365L913.636 51.3546ZM989.415 10.8793L991.988 34.4237L992.642 46.2715L993.351 46.2718L996.044 20.7549L1004.35 20.7581L1006.82 46.277L1007.53 46.2773L1008.24 34.43L1010.88 10.8877L1016.65 10.8899L1012.03 51.3928L1002.97 51.3893L1000.35 25.2627L999.688 25.2625L996.842 51.3869L987.83 51.3834L983.238 10.877L989.415 10.8793ZM1024.24 51.3975L1024.26 10.8929L1049.02 10.9025L1049.02 16.9275L1030.89 16.9205L1030.88 28.2112L1046.48 28.2172L1046.48 33.9385L1030.88 33.9325L1030.88 45.375L1048.5 45.3819L1048.5 51.4069L1024.24 51.3975ZM1058.78 51.4109L1058.8 10.9063L1071.61 10.9112C1075.73 10.9128 1078.95 11.893 1081.28 13.8516C1083.64 15.8102 1084.82 18.4941 1084.82 21.9033C1084.82 23.8272 1084.31 25.4978 1083.3 26.9151C1082.29 28.3324 1080.88 29.3445 1079.09 29.9513L1079.09 30.7614C1081.15 31.4373 1082.74 32.6024 1083.85 34.2568C1085 35.9112 1085.57 37.8691 1085.57 40.1306C1085.57 43.641 1084.32 46.4084 1081.82 48.4326C1079.36 50.4232 1075.96 51.4176 1071.64 51.4159L1058.78 51.4109ZM1065.42 45.2365L1071.6 45.2389C1073.99 45.2399 1075.81 44.7511 1077.06 43.7728C1078.31 42.7606 1078.94 41.3601 1078.94 39.5711C1078.94 37.7484 1078.32 36.3474 1077.07 35.368C1075.82 34.3549 1074 33.8479 1071.6 33.847L1065.42 33.8446L1065.42 45.2365ZM1065.43 28.0727L1071.55 28.0751C1073.81 28.0759 1075.53 27.6041 1076.72 26.6594C1077.93 25.7148 1078.54 24.3648 1078.54 22.6096C1078.54 20.8207 1077.93 19.4534 1076.72 18.5078C1075.54 17.5623 1073.82 17.0891 1071.56 17.0882L1065.43 17.0858L1065.43 28.0727Z" fill="#CECECE"></path>
    <path d="M1104.7 30.6849C1104.76 30.5189 1104.76 30.3391 1104.7 30.1731L1101.46 20.4874C1101.2 19.7102 1102.13 19.09 1102.74 19.634L1114.14 29.8346C1114.23 29.9096 1114.3 30.0018 1114.34 30.1049C1114.39 30.208 1114.41 30.3197 1114.41 30.4328C1114.41 30.5458 1114.39 30.6576 1114.34 30.7606C1114.3 30.8637 1114.23 30.9558 1114.14 31.0308L1102.74 41.2225C1102.12 41.766 1101.19 41.1452 1101.45 40.3681L1104.7 30.6849Z" fill="#CECECE"></path>
    <path d="M1120.7 30.6912C1120.76 30.5253 1120.76 30.3455 1120.7 30.1795L1117.46 20.4938C1117.2 19.7165 1118.13 19.0964 1118.74 19.6403L1130.14 29.8409C1130.23 29.916 1130.3 30.0081 1130.34 30.1112C1130.39 30.2143 1130.41 30.3261 1130.41 30.4391C1130.41 30.5522 1130.39 30.6639 1130.34 30.767C1130.3 30.87 1130.23 30.9621 1130.14 31.0371L1118.74 41.2289C1118.12 41.7723 1117.19 41.1515 1117.45 40.3744L1120.7 30.6912Z" fill="#CECECE"></path>
    <path d="M955.959 24.7217C956.11 24.6441 956.229 24.5252 956.296 24.3831L960.229 16.1003C960.545 15.4362 961.655 15.5648 961.757 16.2777L963.631 29.6204C963.645 29.7187 963.635 29.8185 963.602 29.9134C963.569 30.0082 963.513 30.0959 963.439 30.1707C963.365 30.2455 963.273 30.3056 963.171 30.3472C963.068 30.3887 962.957 30.4107 962.844 30.4117L947.547 30.5589C946.729 30.5654 946.436 29.6159 947.144 29.2526L955.959 24.7217Z" fill="#CECECE"></path>
    <path d="M966.133 24.726C965.982 24.6483 965.864 24.5293 965.797 24.3872L961.87 16.1013C961.555 15.437 960.445 15.5647 960.342 16.2775L958.457 29.6188C958.443 29.717 958.453 29.8169 958.486 29.9118C958.519 30.0066 958.575 30.0944 958.649 30.1692C958.723 30.2441 958.815 30.3043 958.917 30.3459C959.02 30.3875 959.131 30.4096 959.244 30.4107L974.541 30.5697C975.359 30.5768 975.652 29.6276 974.945 29.2638L966.133 24.726Z" fill="#CECECE"></path>
    <path d="M966.13 35.0259C965.978 35.1034 965.86 35.2224 965.793 35.3644L961.86 43.6473C961.544 44.3113 960.434 44.1828 960.332 43.4699L958.457 30.1271C958.444 30.0289 958.454 29.929 958.487 29.8342C958.52 29.7393 958.575 29.6516 958.65 29.5768C958.724 29.5021 958.816 29.4419 958.918 29.4004C959.021 29.3588 959.132 29.3369 959.245 29.3359L974.542 29.1887C975.36 29.1822 975.653 30.1316 974.945 30.4949L966.13 35.0259Z" fill="#CECECE"></path>
    <path d="M955.955 35.0221C956.106 35.0997 956.224 35.2188 956.291 35.3609L960.217 43.6468C960.533 44.3111 961.643 44.1834 961.746 43.4706L963.631 30.1293C963.645 30.031 963.635 29.9312 963.602 29.8363C963.569 29.7414 963.513 29.6536 963.439 29.5788C963.364 29.504 963.273 29.4438 963.17 29.4022C963.068 29.3605 962.957 29.3385 962.844 29.3374L947.547 29.1783C946.729 29.1712 946.436 30.1204 947.143 30.4843L955.955 35.0221Z" fill="#CECECE"></path>
    <path d="M828.124 30.0656C828.068 30.2316 828.068 30.4114 828.123 30.5773L831.363 40.2631C831.622 41.0403 830.69 41.6604 830.08 41.1165L818.679 30.9159C818.595 30.8408 818.527 30.7487 818.481 30.6456C818.435 30.5425 818.411 30.4307 818.411 30.3177C818.412 30.2047 818.435 30.0929 818.482 29.9899C818.528 29.8868 818.595 29.7947 818.679 29.7197L830.088 19.528C830.699 18.9845 831.63 19.6053 831.369 20.3824L828.124 30.0656Z" fill="#CECECE"></path>
    <path d="M812.124 30.0598C812.068 30.2257 812.068 30.4055 812.123 30.5715L815.363 40.2572C815.622 41.0345 814.69 41.6546 814.08 41.1106L802.679 30.91C802.595 30.835 802.527 30.7429 802.481 30.6398C802.435 30.5366 802.411 30.4249 802.411 30.3118C802.412 30.1988 802.435 30.0871 802.482 29.984C802.528 29.8809 802.595 29.7889 802.679 29.7139L814.088 19.5221C814.699 18.9786 815.63 19.5995 815.369 20.3766L812.124 30.0598Z" fill="#CECECE"></path>
    <path d="M1167.06 23.714C1167.22 23.766 1167.39 23.7656 1167.54 23.7128L1176.17 20.6366C1176.87 20.3908 1177.56 21.2665 1177.13 21.8426L1169.02 32.603C1168.96 32.6823 1168.88 32.7459 1168.79 32.7895C1168.7 32.8331 1168.6 32.8558 1168.5 32.8561C1168.39 32.8563 1168.28 32.8342 1168.18 32.791C1168.08 32.7479 1167.98 32.6848 1167.9 32.6058L1156.98 21.893C1156.4 21.3195 1156.86 20.441 1157.62 20.6846L1167.06 23.714Z" fill="#CECECE"></path>
    <path d="M1174.25 30.9111C1174.2 30.7493 1174.2 30.5815 1174.25 30.4335L1177.34 21.7983C1177.58 21.1052 1176.71 20.4106 1176.13 20.8423L1165.36 28.943C1165.28 29.0026 1165.22 29.0802 1165.18 29.1707C1165.13 29.2612 1165.11 29.3625 1165.11 29.468C1165.11 29.5735 1165.13 29.6807 1165.17 29.7826C1165.22 29.8846 1165.28 29.9788 1165.36 30.0593L1176.06 40.9885C1176.64 41.5716 1177.52 41.1081 1177.27 40.3505L1174.25 30.9111Z" fill="#CECECE"></path>
    <path d="M1166.96 38.1913C1166.8 38.1392 1166.63 38.1396 1166.49 38.1925L1157.85 41.2686C1157.16 41.5144 1156.46 40.6388 1156.89 40.0627L1165 29.3023C1165.06 29.223 1165.14 29.1594 1165.23 29.1158C1165.32 29.0721 1165.42 29.0495 1165.53 29.0492C1165.63 29.0489 1165.74 29.0711 1165.84 29.1142C1165.94 29.1574 1166.04 29.2205 1166.12 29.2995L1177.04 40.0122C1177.62 40.5857 1177.16 41.4643 1176.4 41.2207L1166.96 38.1913Z" fill="#CECECE"></path>
    <path d="M1159.77 30.9947C1159.83 31.1565 1159.82 31.3242 1159.77 31.4722L1156.69 40.1074C1156.44 40.8006 1157.32 41.4951 1157.89 41.0635L1168.66 32.9627C1168.74 32.9031 1168.8 32.8256 1168.85 32.7351C1168.89 32.6446 1168.91 32.5432 1168.91 32.4378C1168.91 32.3323 1168.89 32.225 1168.85 32.1231C1168.81 32.0212 1168.74 31.9269 1168.66 31.8465L1157.96 20.9172C1157.39 20.3341 1156.51 20.7976 1156.75 21.5552L1159.77 30.9947Z" fill="#CECECE"></path>
    <path d="M1244.91 51.4831L1244.91 45.2049L1254.99 45.2088L1255 17.2606L1244.92 17.2567L1244.92 10.9785L1271.66 10.9889L1271.65 17.2671L1261.58 17.2632L1261.57 45.2114L1271.64 45.2153L1271.64 51.4935L1244.91 51.4831ZM1279.95 51.4967L1279.96 40.8643L1300.73 17.6834L1300.73 17.0252L1279.97 17.0172L1279.97 10.9921L1305.49 11.002L1305.48 21.6345L1284.72 44.8153L1284.72 45.4735L1305.47 45.4816L1305.47 51.5066L1279.95 51.4967ZM1313.79 51.5099L1313.79 45.2316L1323.86 45.2356L1323.87 17.2873L1313.8 17.2834L1313.8 11.0052L1340.53 11.0156L1340.53 17.2938L1330.46 17.2899L1330.45 45.2381L1340.52 45.242L1340.52 51.5202L1313.79 51.5099ZM1389.56 11.0346L1392.14 34.5789L1392.79 46.4268L1393.5 46.4271L1396.19 20.9102L1404.5 20.9134L1406.97 46.4323L1407.68 46.4326L1408.39 34.5853L1411.03 11.043L1416.8 11.0452L1412.18 51.548L1403.12 51.5445L1400.5 25.418L1399.84 25.4178L1396.99 51.5421L1387.98 51.5387L1383.39 11.0322L1389.56 11.0346ZM1424.39 51.5528L1424.41 11.0481L1449.17 11.0577L1449.16 17.0828L1431.04 17.0758L1431.03 28.3664L1446.63 28.3725L1446.63 34.0938L1431.03 34.0877L1431.03 45.5303L1448.65 45.5371L1448.64 51.5622L1424.39 51.5528ZM1458.93 51.5662L1458.95 11.0615L1471.76 11.0665C1475.88 11.0681 1479.1 12.0482 1481.43 14.0069C1483.79 15.9655 1484.97 18.6494 1484.97 22.0585C1484.97 23.9825 1484.46 25.6531 1483.45 27.0704C1482.43 28.4877 1481.03 29.4997 1479.24 30.1066L1479.24 30.9167C1481.3 31.5926 1482.89 32.7577 1484 34.4121C1485.15 36.0665 1485.72 38.0244 1485.72 40.2859C1485.72 43.7963 1484.47 46.5636 1481.97 48.5879C1479.51 50.5784 1476.11 51.5729 1471.79 51.5712L1458.93 51.5662ZM1465.57 45.3918L1471.74 45.3942C1474.14 45.3951 1475.96 44.9064 1477.21 43.928C1478.46 42.9159 1479.09 41.5154 1479.09 39.7264C1479.09 37.9037 1478.47 36.5027 1477.22 35.5233C1475.97 34.5102 1474.15 34.0032 1471.75 34.0023L1465.57 33.9999L1465.57 45.3918ZM1465.57 28.228L1471.7 28.2303C1473.96 28.2312 1475.68 27.7593 1476.87 26.8147C1478.08 25.87 1478.69 24.5201 1478.69 22.7649C1478.69 20.976 1478.08 19.6087 1476.87 18.6631C1475.69 17.7176 1473.97 17.2443 1471.71 17.2435L1465.58 17.2411L1465.57 28.228Z" fill="#CECECE"></path>
    <path d="M1505.9 30.7581C1505.96 30.5922 1505.96 30.4124 1505.9 30.2464L1502.66 20.5607C1502.4 19.7834 1503.33 19.1633 1503.94 19.7072L1515.35 29.9078C1515.43 29.9829 1515.5 30.075 1515.54 30.1781C1515.59 30.2812 1515.61 30.393 1515.61 30.506C1515.61 30.6191 1515.59 30.7308 1515.54 30.8339C1515.5 30.9369 1515.43 31.029 1515.34 31.104L1503.94 41.2958C1503.33 41.8392 1502.39 41.2184 1502.65 40.4413L1505.9 30.7581Z" fill="#CECECE"></path>
    <path d="M1521.9 30.7645C1521.96 30.5985 1521.96 30.4187 1521.9 30.2527L1518.66 20.567C1518.4 19.7897 1519.33 19.1696 1519.94 19.7136L1531.35 29.9142C1531.43 29.9892 1531.5 30.0814 1531.54 30.1845C1531.59 30.2876 1531.61 30.3993 1531.61 30.5124C1531.61 30.6254 1531.59 30.7371 1531.54 30.8402C1531.5 30.9433 1531.43 31.0354 1531.34 31.1103L1519.94 41.3021C1519.33 41.8456 1518.39 41.2247 1518.65 40.4477L1521.9 30.7645Z" fill="#CECECE"></path>
    <path d="M1357.16 24.7939C1357.31 24.7164 1357.43 24.5974 1357.5 24.4554L1361.43 16.1725C1361.75 15.5085 1362.86 15.637 1362.96 16.3499L1364.83 29.6927C1364.85 29.7909 1364.84 29.8908 1364.8 29.9856C1364.77 30.0805 1364.71 30.1682 1364.64 30.243C1364.56 30.3178 1364.47 30.3779 1364.37 30.4194C1364.27 30.461 1364.16 30.483 1364.04 30.484L1348.75 30.6312C1347.93 30.6376 1347.64 29.6882 1348.34 29.3249L1357.16 24.7939Z" fill="#CECECE"></path>
    <path d="M1367.33 24.7978C1367.18 24.7201 1367.06 24.6011 1367 24.459L1363.07 16.1731C1362.75 15.5088 1361.64 15.6364 1361.54 16.3492L1359.66 29.6905C1359.64 29.7888 1359.65 29.8887 1359.69 29.9835C1359.72 30.0784 1359.77 30.1662 1359.85 30.241C1359.92 30.3158 1360.02 30.376 1360.12 30.4177C1360.22 30.4593 1360.33 30.4814 1360.44 30.4824L1375.74 30.6415C1376.56 30.6486 1376.85 29.6994 1376.14 29.3356L1367.33 24.7978Z" fill="#CECECE"></path>
    <path d="M1367.33 35.0977C1367.18 35.1752 1367.06 35.2942 1366.99 35.4362L1363.06 43.7191C1362.74 44.3831 1361.63 44.2546 1361.53 43.5417L1359.66 30.1989C1359.64 30.1007 1359.65 30.0008 1359.69 29.906C1359.72 29.8111 1359.78 29.7234 1359.85 29.6486C1359.92 29.5738 1360.02 29.5137 1360.12 29.4722C1360.22 29.4306 1360.33 29.4086 1360.44 29.4076L1375.74 29.2604C1376.56 29.254 1376.85 30.2034 1376.15 30.5667L1367.33 35.0977Z" fill="#CECECE"></path>
    <path d="M1357.15 35.0938C1357.31 35.1715 1357.42 35.2905 1357.49 35.4326L1361.42 43.7185C1361.73 44.3828 1362.84 44.2552 1362.95 43.5424L1364.83 30.2011C1364.84 30.1028 1364.84 30.0029 1364.8 29.9081C1364.77 29.8132 1364.71 29.7254 1364.64 29.6506C1364.56 29.5758 1364.47 29.5156 1364.37 29.4739C1364.27 29.4323 1364.16 29.4102 1364.04 29.4092L1348.75 29.2501C1347.93 29.243 1347.64 30.1922 1348.34 30.556L1357.15 35.0938Z" fill="#CECECE"></path>
    <path d="M1229.32 30.1384C1229.27 30.3043 1229.27 30.4841 1229.32 30.6501L1232.56 40.3358C1232.82 41.1131 1231.89 41.7332 1231.28 41.1893L1219.88 30.9886C1219.79 30.9136 1219.73 30.8215 1219.68 30.7184C1219.64 30.6153 1219.61 30.5035 1219.61 30.3905C1219.61 30.2774 1219.64 30.1657 1219.68 30.0626C1219.73 29.9595 1219.8 29.8675 1219.88 29.7925L1231.29 19.6007C1231.9 19.0573 1232.83 19.6781 1232.57 20.4552L1229.32 30.1384Z" fill="#CECECE"></path>
    <path d="M1213.32 30.1325C1213.27 30.2985 1213.27 30.4782 1213.32 30.6442L1216.56 40.3299C1216.82 41.1072 1215.89 41.7273 1215.28 41.1834L1203.88 30.9828C1203.79 30.9077 1203.73 30.8156 1203.68 30.7125C1203.64 30.6094 1203.61 30.4976 1203.61 30.3846C1203.61 30.2716 1203.64 30.1598 1203.68 30.0568C1203.73 29.9537 1203.8 29.8616 1203.88 29.7866L1215.29 19.5949C1215.9 19.0514 1216.83 19.6722 1216.57 20.4493L1213.32 30.1325Z" fill="#CECECE"></path>
    <path d="M1568.26 23.8697C1568.42 23.9218 1568.59 23.9214 1568.74 23.8685L1577.37 20.7924C1578.07 20.5466 1578.76 21.4223 1578.33 21.9983L1570.22 32.7588C1570.16 32.8381 1570.08 32.9016 1569.99 32.9453C1569.9 32.9889 1569.8 33.0116 1569.69 33.0118C1569.59 33.0121 1569.48 32.9899 1569.38 32.9468C1569.28 32.9037 1569.18 32.8405 1569.1 32.7616L1558.18 22.0488C1557.6 21.4753 1558.06 20.5967 1558.82 20.8404L1568.26 23.8697Z" fill="#CECECE"></path>
    <path d="M1575.45 31.0668C1575.4 30.905 1575.4 30.7373 1575.45 30.5893L1578.53 21.9541C1578.78 21.261 1577.91 20.5664 1577.33 20.9981L1566.56 29.0988C1566.48 29.1584 1566.42 29.236 1566.38 29.3265C1566.33 29.417 1566.31 29.5183 1566.31 29.6238C1566.31 29.7292 1566.33 29.8365 1566.37 29.9384C1566.42 30.0403 1566.48 30.1346 1566.56 30.215L1577.26 41.1443C1577.84 41.7274 1578.72 41.2639 1578.47 40.5063L1575.45 31.0668Z" fill="#CECECE"></path>
    <path d="M1568.16 38.3471C1568 38.295 1567.84 38.2954 1567.69 38.3483L1559.05 41.4244C1558.36 41.6702 1557.66 40.7945 1558.09 40.2185L1566.2 29.458C1566.26 29.3787 1566.34 29.3152 1566.43 29.2715C1566.52 29.2279 1566.62 29.2052 1566.73 29.205C1566.83 29.2047 1566.94 29.2269 1567.04 29.27C1567.15 29.3131 1567.24 29.3763 1567.32 29.4552L1578.24 40.168C1578.82 40.7415 1578.36 41.6201 1577.6 41.3764L1568.16 38.3471Z" fill="#CECECE"></path>
    <path d="M1560.97 31.1504C1561.03 31.3122 1561.02 31.48 1560.97 31.628L1557.89 40.2632C1557.64 40.9563 1558.52 41.6509 1559.09 41.2192L1569.86 33.1185C1569.94 33.0589 1570 32.9813 1570.05 32.8908C1570.09 32.8003 1570.11 32.699 1570.11 32.5935C1570.11 32.488 1570.09 32.3808 1570.05 32.2789C1570.01 32.177 1569.94 32.0827 1569.86 32.0022L1559.16 21.073C1558.59 20.4899 1557.71 20.9534 1557.95 21.711L1560.97 31.1504Z" fill="#CECECE"></path>
    <path d="M1647.16 51.6389L1647.16 45.3607L1657.24 45.3646L1657.25 17.4164L1647.17 17.4125L1647.17 11.1343L1673.91 11.1446L1673.9 17.4228L1663.83 17.4189L1663.82 45.3671L1673.89 45.371L1673.89 51.6493L1647.16 51.6389ZM1682.2 51.6525L1682.21 41.02L1702.98 17.8392L1702.98 17.181L1682.22 17.1729L1682.22 11.1479L1707.74 11.1578L1707.73 21.7902L1686.97 44.9711L1686.97 45.6293L1707.72 45.6373L1707.72 51.6624L1682.2 51.6525ZM1716.04 51.6656L1716.04 45.3874L1726.11 45.3913L1726.12 17.4431L1716.05 17.4392L1716.05 11.161L1742.78 11.1714L1742.78 17.4496L1732.71 17.4457L1732.7 45.3939L1742.77 45.3978L1742.77 51.676L1716.04 51.6656ZM1791.81 11.1904L1794.39 34.7347L1795.04 46.5826L1795.75 46.5828L1798.44 21.066L1806.75 21.0692L1809.22 46.5881L1809.93 46.5883L1810.64 34.741L1813.28 11.1987L1819.05 11.201L1814.43 51.7038L1805.37 51.7003L1802.75 25.5738L1802.09 25.5735L1799.24 51.6979L1790.23 51.6944L1785.64 11.188L1791.81 11.1904ZM1826.64 51.7085L1826.66 11.2039L1851.42 11.2135L1851.41 17.2386L1833.29 17.2315L1833.28 28.5222L1848.88 28.5283L1848.88 34.2495L1833.28 34.2435L1833.28 45.6861L1850.9 45.6929L1850.89 51.718L1826.64 51.7085ZM1861.18 51.7219L1861.2 11.2173L1874.01 11.2223C1878.13 11.2239 1881.35 12.204 1883.68 14.1626C1886.04 16.1213 1887.22 18.8051 1887.22 22.2143C1887.22 24.1383 1886.71 25.8089 1885.7 27.2261C1884.68 28.6434 1883.28 29.6555 1881.49 30.2624L1881.49 31.0725C1883.55 31.7483 1885.14 32.9135 1886.25 34.5678C1887.4 36.2222 1887.97 38.1802 1887.97 40.4417C1887.97 43.9521 1886.72 46.7194 1884.22 48.7437C1881.76 50.7342 1878.36 51.7286 1874.04 51.7269L1861.18 51.7219ZM1867.82 45.5476L1873.99 45.55C1876.39 45.5509 1878.21 45.0622 1879.46 44.0838C1880.71 43.0717 1881.34 41.6711 1881.34 39.8822C1881.34 38.0595 1880.72 36.6584 1879.47 35.6791C1878.22 34.666 1876.4 34.159 1874 34.158L1867.82 34.1556L1867.82 45.5476ZM1867.82 28.3837L1873.95 28.3861C1876.21 28.387 1877.93 27.9151 1879.12 26.9704C1880.33 26.0258 1880.94 24.6759 1880.94 22.9207C1880.94 21.1317 1880.33 19.7645 1879.12 18.8189C1877.94 17.8733 1876.22 17.4001 1873.96 17.3992L1867.83 17.3968L1867.82 28.3837Z" fill="#CECECE"></path>
    <path d="M1907.1 30.9954C1907.16 30.8295 1907.16 30.6497 1907.1 30.4837L1903.86 20.798C1903.6 20.0207 1904.53 19.4006 1905.14 19.9445L1916.55 30.1451C1916.63 30.2202 1916.7 30.3123 1916.74 30.4154C1916.79 30.5185 1916.81 30.6303 1916.81 30.7433C1916.81 30.8564 1916.79 30.9681 1916.74 31.0712C1916.7 31.1742 1916.63 31.2663 1916.55 31.3413L1905.14 41.5331C1904.53 42.0765 1903.59 41.4557 1903.85 40.6786L1907.1 30.9954Z" fill="#CECECE"></path>
    <path d="M1923.1 31.0018C1923.16 30.8358 1923.16 30.656 1923.1 30.49L1919.86 20.8043C1919.6 20.027 1920.53 19.4069 1921.14 19.9509L1932.55 30.1515C1932.63 30.2265 1932.7 30.3187 1932.74 30.4218C1932.79 30.5249 1932.81 30.6366 1932.81 30.7497C1932.81 30.8627 1932.79 30.9744 1932.74 31.0775C1932.7 31.1806 1932.63 31.2727 1932.55 31.3476L1921.14 41.5394C1920.53 42.0829 1919.59 41.462 1919.85 40.685L1923.1 31.0018Z" fill="#CECECE"></path>
    <path d="M1758.36 25.0322C1758.51 24.9547 1758.63 24.8357 1758.7 24.6937L1762.63 16.4108C1762.95 15.7468 1764.06 15.8753 1764.16 16.5882L1766.03 29.931C1766.05 30.0292 1766.04 30.1291 1766 30.2239C1765.97 30.3188 1765.91 30.4065 1765.84 30.4813C1765.77 30.556 1765.67 30.6162 1765.57 30.6577C1765.47 30.6993 1765.36 30.7212 1765.24 30.7222L1749.95 30.8694C1749.13 30.8759 1748.84 29.9265 1749.54 29.5632L1758.36 25.0322Z" fill="#CECECE"></path>
    <path d="M1768.53 25.036C1768.38 24.9584 1768.26 24.8393 1768.2 24.6973L1764.27 16.4113C1763.95 15.747 1762.84 15.8747 1762.74 16.5875L1760.86 29.9288C1760.84 30.0271 1760.85 30.1269 1760.89 30.2218C1760.92 30.3167 1760.98 30.4045 1761.05 30.4793C1761.12 30.5541 1761.22 30.6143 1761.32 30.6559C1761.42 30.6976 1761.53 30.7196 1761.64 30.7207L1776.94 30.8798C1777.76 30.8869 1778.05 29.9377 1777.35 29.5738L1768.53 25.036Z" fill="#CECECE"></path>
    <path d="M1768.53 35.336C1768.38 35.4135 1768.26 35.5324 1768.19 35.6745L1764.26 43.9573C1763.94 44.6214 1762.83 44.4928 1762.73 43.78L1760.86 30.4372C1760.84 30.3389 1760.85 30.2391 1760.89 30.1442C1760.92 30.0494 1760.98 29.9617 1761.05 29.8869C1761.12 29.8121 1761.22 29.752 1761.32 29.7104C1761.42 29.6689 1761.53 29.6469 1761.65 29.6459L1776.94 29.4987C1777.76 29.4922 1778.05 30.4417 1777.35 30.805L1768.53 35.336Z" fill="#CECECE"></path>
    <path d="M1758.36 35.3321C1758.51 35.4098 1758.62 35.5288 1758.69 35.6709L1762.62 43.9568C1762.93 44.6211 1764.04 44.4934 1764.15 43.7806L1766.03 30.4393C1766.05 30.3411 1766.04 30.2412 1766 30.1463C1765.97 30.0515 1765.91 29.9637 1765.84 29.8889C1765.76 29.814 1765.67 29.7538 1765.57 29.7122C1765.47 29.6706 1765.36 29.6485 1765.24 29.6474L1749.95 29.4884C1749.13 29.4813 1748.84 30.4305 1749.54 30.7943L1758.36 35.3321Z" fill="#CECECE"></path>
    <path d="M1630.52 30.3762C1630.47 30.5421 1630.47 30.7219 1630.52 30.8879L1633.76 40.5736C1634.02 41.3509 1633.09 41.971 1632.48 41.427L1621.08 31.2264C1620.99 31.1514 1620.93 31.0593 1620.88 30.9562C1620.84 30.853 1620.81 30.7413 1620.81 30.6283C1620.81 30.5152 1620.84 30.4035 1620.88 30.3004C1620.93 30.1973 1621 30.1053 1621.08 30.0303L1632.49 19.8385C1633.1 19.2951 1634.03 19.9159 1633.77 20.693L1630.52 30.3762Z" fill="#CECECE"></path>
    <path d="M1614.52 30.3703C1614.47 30.5363 1614.47 30.716 1614.52 30.882L1617.76 40.5677C1618.02 41.345 1617.09 41.9651 1616.48 41.4212L1605.08 31.2206C1604.99 31.1455 1604.93 31.0534 1604.88 30.9503C1604.84 30.8472 1604.81 30.7354 1604.81 30.6224C1604.81 30.5094 1604.84 30.3976 1604.88 30.2945C1604.93 30.1915 1605 30.0994 1605.08 30.0244L1616.49 19.8327C1617.1 19.2892 1618.03 19.91 1617.77 20.6871L1614.52 30.3703Z" fill="#CECECE"></path>
    <path d="M1969.46 24.025C1969.62 24.0771 1969.79 24.0767 1969.94 24.0238L1978.57 20.9477C1979.27 20.7019 1979.96 21.5776 1979.53 22.1536L1971.42 32.914C1971.36 32.9933 1971.28 33.0569 1971.19 33.1005C1971.1 33.1442 1971 33.1669 1970.9 33.1671C1970.79 33.1674 1970.68 33.1452 1970.58 33.1021C1970.48 33.0589 1970.38 32.9958 1970.3 32.9168L1959.38 22.2041C1958.8 21.6306 1959.27 20.752 1960.02 20.9957L1969.46 24.025Z" fill="#CECECE"></path>
    <path d="M1976.65 31.2221C1976.6 31.0603 1976.6 30.8925 1976.65 30.7446L1979.74 22.1094C1979.98 21.4162 1979.11 20.7217 1978.53 21.1533L1967.76 29.2541C1967.68 29.3137 1967.62 29.3912 1967.58 29.4817C1967.53 29.5722 1967.51 29.6736 1967.51 29.779C1967.51 29.8845 1967.53 29.9918 1967.58 30.0937C1967.62 30.1956 1967.68 30.2899 1967.76 30.3703L1978.46 41.2996C1979.04 41.8827 1979.92 41.4192 1979.67 40.6616L1976.65 31.2221Z" fill="#CECECE"></path>
    <path d="M1969.36 38.5023C1969.2 38.4503 1969.04 38.4507 1968.89 38.5035L1960.25 41.5797C1959.56 41.8255 1958.86 40.9498 1959.29 40.3737L1967.4 29.6133C1967.46 29.534 1967.54 29.4704 1967.63 29.4268C1967.72 29.3832 1967.82 29.3605 1967.93 29.3602C1968.03 29.36 1968.14 29.3821 1968.24 29.4253C1968.35 29.4684 1968.44 29.5316 1968.52 29.6105L1979.44 40.3233C1980.02 40.8968 1979.56 41.7754 1978.8 41.5317L1969.36 38.5023Z" fill="#CECECE"></path>
    <path d="M1962.17 31.3057C1962.23 31.4675 1962.23 31.6353 1962.17 31.7833L1959.09 40.4185C1958.84 41.1116 1959.72 41.8062 1960.29 41.3745L1971.06 33.2738C1971.14 33.2142 1971.2 33.1366 1971.25 33.0461C1971.29 32.9556 1971.31 32.8543 1971.31 32.7488C1971.32 32.6433 1971.29 32.5361 1971.25 32.4342C1971.21 32.3322 1971.14 32.238 1971.07 32.1575L1960.36 21.2283C1959.79 20.6452 1958.91 21.1087 1959.15 21.8663L1962.17 31.3057Z" fill="#CECECE"></path>
    <path d="M2045.47 51.7937L2045.47 45.5155L2055.55 45.5194L2055.56 17.5712L2045.48 17.5673L2045.49 11.289L2072.22 11.2994L2072.22 17.5776L2062.14 17.5737L2062.13 45.5219L2072.21 45.5258L2072.2 51.8041L2045.47 51.7937ZM2080.52 51.8073L2080.52 41.1748L2101.29 17.994L2101.29 17.3358L2080.53 17.3277L2080.53 11.3026L2106.05 11.3125L2106.05 21.945L2085.28 45.1259L2085.28 45.7841L2106.04 45.7921L2106.04 51.8172L2080.52 51.8073ZM2114.35 51.8204L2114.35 45.5422L2124.43 45.5461L2124.44 17.5979L2114.36 17.594L2114.36 11.3158L2141.1 11.3261L2141.1 17.6044L2131.02 17.6004L2131.01 45.5487L2141.08 45.5526L2141.08 51.8308L2114.35 51.8204ZM2190.13 11.3452L2192.7 34.8895L2193.35 46.7374L2194.06 46.7376L2196.76 21.2207L2205.06 21.224L2207.53 46.7429L2208.24 46.7431L2208.95 34.8958L2211.6 11.3535L2217.37 11.3557L2212.74 51.8586L2203.68 51.8551L2201.06 25.7286L2200.4 25.7283L2197.56 51.8527L2188.54 51.8492L2183.95 11.3428L2190.13 11.3452ZM2224.96 51.8633L2224.97 11.3587L2249.73 11.3683L2249.73 17.3934L2231.6 17.3863L2231.6 28.677L2247.19 28.683L2247.19 34.4043L2231.6 34.3983L2231.59 45.8408L2249.21 45.8477L2249.21 51.8727L2224.96 51.8633ZM2259.5 51.8767L2259.51 11.3721L2272.32 11.3771C2276.44 11.3787 2279.66 12.3588 2281.99 14.3174C2284.35 16.276 2285.53 18.9599 2285.53 22.3691C2285.53 24.293 2285.02 25.9637 2284.01 27.3809C2283 28.7982 2281.6 29.8103 2279.81 30.4172L2279.81 31.2272C2281.87 31.9031 2283.45 33.0682 2284.57 34.7226C2285.71 36.377 2286.29 38.3349 2286.28 40.5965C2286.28 44.1069 2285.03 46.8742 2282.53 48.8985C2280.07 50.889 2276.68 51.8834 2272.36 51.8817L2259.5 51.8767ZM2266.13 45.7023L2272.31 45.7047C2274.7 45.7057 2276.53 45.217 2277.78 44.2386C2279.03 43.2264 2279.65 41.8259 2279.65 40.0369C2279.65 38.2142 2279.03 36.8132 2277.78 35.8339C2276.53 34.8208 2274.71 34.3137 2272.31 34.3128L2266.14 34.3104L2266.13 45.7023ZM2266.14 28.5385L2272.26 28.5409C2274.53 28.5418 2276.25 28.0699 2277.43 27.1252C2278.64 26.1806 2279.25 24.8307 2279.25 23.0755C2279.25 21.2865 2278.65 19.9192 2277.43 18.9737C2276.25 18.0281 2274.53 17.5549 2272.27 17.554L2266.14 17.5516L2266.14 28.5385Z" fill="#CECECE"></path>
    <path d="M2305.41 31.1502C2305.47 30.9843 2305.47 30.8045 2305.41 30.6385L2302.17 20.9528C2301.92 20.1755 2302.85 19.5554 2303.46 20.0993L2314.86 30.2999C2314.94 30.375 2315.01 30.4671 2315.06 30.5702C2315.1 30.6733 2315.13 30.7851 2315.13 30.8981C2315.13 31.0111 2315.1 31.1229 2315.06 31.226C2315.01 31.329 2314.94 31.4211 2314.86 31.4961L2303.45 41.6878C2302.84 42.2313 2301.91 41.6105 2302.17 40.8334L2305.41 31.1502Z" fill="#CECECE"></path>
    <path d="M2321.41 31.1566C2321.47 30.9906 2321.47 30.8108 2321.41 30.6448L2318.17 20.9591C2317.92 20.1818 2318.85 19.5617 2319.46 20.1057L2330.86 30.3063C2330.94 30.3813 2331.01 30.4734 2331.06 30.5766C2331.1 30.6797 2331.13 30.7914 2331.13 30.9045C2331.13 31.0175 2331.1 31.1292 2331.06 31.2323C2331.01 31.3354 2330.94 31.4274 2330.86 31.5024L2319.45 41.6942C2318.84 42.2377 2317.91 41.6168 2318.17 40.8397L2321.41 31.1566Z" fill="#CECECE"></path>
    <path d="M2156.67 25.187C2156.82 25.1094 2156.94 24.9905 2157.01 24.8485L2160.94 16.5656C2161.26 15.9016 2162.37 16.0301 2162.47 16.743L2164.35 30.0857C2164.36 30.184 2164.35 30.2839 2164.32 30.3787C2164.28 30.4736 2164.23 30.5613 2164.15 30.6361C2164.08 30.7108 2163.99 30.771 2163.88 30.8125C2163.78 30.854 2163.67 30.876 2163.56 30.877L2148.26 31.0242C2147.44 31.0307 2147.15 30.0812 2147.86 29.718L2156.67 25.187Z" fill="#CECECE"></path>
    <path d="M2166.85 25.1908C2166.7 25.1132 2166.58 24.9941 2166.51 24.852L2162.58 16.5661C2162.27 15.9018 2161.16 16.0295 2161.06 16.7423L2159.17 30.0836C2159.16 30.1819 2159.17 30.2817 2159.2 30.3766C2159.23 30.4715 2159.29 30.5592 2159.36 30.6341C2159.44 30.7089 2159.53 30.7691 2159.63 30.8107C2159.73 30.8524 2159.85 30.8744 2159.96 30.8755L2175.25 31.0346C2176.07 31.0417 2176.37 30.0925 2175.66 29.7286L2166.85 25.1908Z" fill="#CECECE"></path>
    <path d="M2166.84 35.4907C2166.69 35.5683 2166.57 35.6872 2166.51 35.8293L2162.57 44.1121C2162.26 44.7762 2161.15 44.6476 2161.05 43.9347L2159.17 30.592C2159.16 30.4937 2159.17 30.3939 2159.2 30.299C2159.23 30.2042 2159.29 30.1165 2159.36 30.0417C2159.44 29.9669 2159.53 29.9068 2159.63 29.8652C2159.73 29.8237 2159.85 29.8017 2159.96 29.8007L2175.26 29.6535C2176.07 29.647 2176.37 30.5965 2175.66 30.9598L2166.84 35.4907Z" fill="#CECECE"></path>
    <path d="M2156.67 35.4869C2156.82 35.5646 2156.94 35.6836 2157.01 35.8257L2160.93 44.1116C2161.25 44.7759 2162.36 44.6482 2162.46 43.9354L2164.34 30.5941C2164.36 30.4959 2164.35 30.396 2164.32 30.3011C2164.28 30.2062 2164.23 30.1185 2164.15 30.0437C2164.08 29.9688 2163.99 29.9086 2163.88 29.867C2163.78 29.8254 2163.67 29.8033 2163.56 29.8022L2148.26 29.6431C2147.44 29.636 2147.15 30.5853 2147.86 30.9491L2156.67 35.4869Z" fill="#CECECE"></path>
    <path d="M2028.84 30.5309C2028.78 30.6969 2028.78 30.8767 2028.84 31.0427L2032.08 40.7284C2032.34 41.5057 2031.4 42.1258 2030.79 41.5818L2019.39 31.3812C2019.31 31.3062 2019.24 31.2141 2019.2 31.1109C2019.15 31.0078 2019.13 30.8961 2019.13 30.783C2019.13 30.67 2019.15 30.5583 2019.2 30.4552C2019.24 30.3521 2019.31 30.2601 2019.39 30.1851L2030.8 19.9933C2031.41 19.4498 2032.34 20.0707 2032.08 20.8478L2028.84 30.5309Z" fill="#CECECE"></path>
    <path d="M2015.72 30.8176C2015.67 30.9835 2015.67 31.1633 2015.72 31.3293L2018.96 41.015C2019.22 41.7923 2018.29 42.4124 2017.68 41.8685L2006.28 31.6678C2006.2 31.5928 2006.13 31.5007 2006.08 31.3976C2006.04 31.2945 2006.01 31.1827 2006.01 31.0697C2006.01 30.9566 2006.04 30.8449 2006.08 30.7418C2006.13 30.6387 2006.2 30.5467 2006.28 30.4717L2017.69 20.2799C2018.3 19.7365 2019.23 20.3573 2018.97 21.1344L2015.72 30.8176Z" fill="#CECECE"></path>
    <path d="M2367.77 24.1798C2367.94 24.2319 2368.1 24.2314 2368.25 24.1786L2376.89 21.1025C2377.58 20.8567 2378.28 21.7323 2377.84 22.3084L2369.74 33.0688C2369.68 33.1481 2369.6 33.2117 2369.51 33.2553C2369.42 33.2989 2369.32 33.3216 2369.21 33.3219C2369.1 33.3222 2369 33.3 2368.9 33.2569C2368.79 33.2137 2368.7 33.1506 2368.62 33.0716L2357.7 22.3589C2357.12 21.7854 2357.58 20.9068 2358.34 21.1504L2367.77 24.1798Z" fill="#CECECE"></path>
    <path d="M2374.97 31.3769C2374.91 31.2151 2374.91 31.0473 2374.97 30.8994L2378.05 22.2641C2378.3 21.571 2377.42 20.8765 2376.84 21.3081L2366.08 29.4089C2366 29.4684 2365.93 29.546 2365.89 29.6365C2365.85 29.727 2365.82 29.8283 2365.82 29.9338C2365.82 30.0393 2365.85 30.1465 2365.89 30.2485C2365.93 30.3504 2366 30.4447 2366.07 30.5251L2376.78 41.4543C2377.35 42.0374 2378.23 41.574 2377.99 40.8164L2374.97 31.3769Z" fill="#CECECE"></path>
    <path d="M2367.68 38.6571C2367.52 38.605 2367.35 38.6055 2367.2 38.6583L2358.56 41.7345C2357.87 41.9803 2357.18 41.1046 2357.61 40.5285L2365.72 29.7681C2365.78 29.6888 2365.86 29.6252 2365.95 29.5816C2366.04 29.538 2366.14 29.5153 2366.24 29.515C2366.35 29.5147 2366.46 29.5369 2366.56 29.5801C2366.66 29.6232 2366.75 29.6863 2366.83 29.7653L2377.76 40.4781C2378.34 41.0516 2377.87 41.9301 2377.12 41.6865L2367.68 38.6571Z" fill="#CECECE"></path>
    <path d="M2360.49 31.4605C2360.54 31.6223 2360.54 31.7901 2360.49 31.938L2357.4 40.5733C2357.16 41.2664 2358.03 41.9609 2358.61 41.5293L2369.38 33.4286C2369.46 33.369 2369.52 33.2914 2369.56 33.2009C2369.61 33.1104 2369.63 33.0091 2369.63 32.9036C2369.63 32.7981 2369.61 32.6909 2369.56 32.5889C2369.52 32.487 2369.46 32.3927 2369.38 32.3123L2358.68 21.3831C2358.1 20.8 2357.22 21.2634 2357.47 22.021L2360.49 31.4605Z" fill="#CECECE"></path>
  </symbol>
</svg>