<svg width="820" height="133" viewBox="0 0 820 133" fill="none" xmlns="http://www.w3.org/2000/svg">
<mask id="mask0_2050_203" style="mask-type:alpha" maskUnits="userSpaceOnUse" x="0" y="0" width="820" height="133">
<rect width="820" height="133" fill="#D9D9D9"/>
</mask>
<g mask="url(#mask0_2050_203)">
<mask id="path-2-inside-1_2050_203" fill="white">
<path d="M804 -555C812.836 -555 820 -547.836 820 -539V37.415C820 46.2516 812.837 53.415 804 53.415H773.314C768.543 53.415 764.021 55.544 760.982 59.2211L704.794 127.194C701.755 130.871 697.233 133 692.462 133H16C7.16344 133 0 125.837 0 117V-539C4.28244e-06 -547.837 7.16345 -555 16 -555H804Z"/>
</mask>
<path d="M804 -555C812.836 -555 820 -547.836 820 -539V37.415C820 46.2516 812.837 53.415 804 53.415H773.314C768.543 53.415 764.021 55.544 760.982 59.2211L704.794 127.194C701.755 130.871 697.233 133 692.462 133H16C7.16344 133 0 125.837 0 117V-539C4.28244e-06 -547.837 7.16345 -555 16 -555H804Z" fill="#F0F0F0"/>
<path d="M804 -555L804 -556H804V-555ZM820 -539L821 -539L820 -539ZM0 -539L-1 -539V-539H0ZM704.794 127.194L704.024 126.557L704.794 127.194ZM760.982 59.2211L761.753 59.8582L760.982 59.2211ZM804 -555L804 -554C812.284 -554 819 -547.284 819 -539L820 -539L821 -539C821 -548.389 813.389 -556 804 -556L804 -555ZM820 -539H819V37.415H820H821V-539H820ZM804 53.415V52.415H773.314V53.415V54.415H804V53.415ZM760.982 59.2211L760.211 58.5839L704.024 126.557L704.794 127.194L705.565 127.831L761.753 59.8582L760.982 59.2211ZM692.462 133V132H16V133V134H692.462V133ZM16 133V132C7.71573 132 1 125.284 1 117H0H-1C-1 126.389 6.61116 134 16 134V133ZM0 117H1V-539H0H-1V117H0ZM0 -539L1 -539C1 -547.284 7.71573 -554 16 -554V-555V-556C6.61116 -556 -0.999995 -548.389 -1 -539L0 -539ZM16 -555V-554H804V-555V-556H16V-555ZM704.794 127.194L704.024 126.557C701.174 130.004 696.935 132 692.462 132V133V134C697.531 134 702.336 131.738 705.565 127.831L704.794 127.194ZM773.314 53.415V52.415C768.245 52.415 763.441 54.677 760.211 58.5839L760.982 59.2211L761.753 59.8582C764.602 56.4109 768.842 54.415 773.314 54.415V53.415ZM820 37.415H819C819 45.6993 812.284 52.415 804 52.415V53.415V54.415C813.389 54.415 821 46.8039 821 37.415H820Z" fill="#343434" mask="url(#path-2-inside-1_2050_203)"/>
</g>
</svg>
