<svg width="425" height="130" viewBox="0 0 425 130" fill="none" xmlns="http://www.w3.org/2000/svg">
<mask id="mask0_2050_213" style="mask-type:alpha" maskUnits="userSpaceOnUse" x="0" y="0" width="425" height="130">
<rect width="425" height="130" fill="#D9D9D9"/>
</mask>
<g mask="url(#mask0_2050_213)">
<mask id="path-2-inside-1_2050_213" fill="white">
<path d="M415.049 -75C420.545 -74.9998 425 -70.5446 425 -65.0488V34.415C425 43.2516 417.837 50.415 409 50.415H375.315C370.544 50.415 366.022 52.5439 362.983 56.221L306.794 124.194C303.755 127.871 299.233 130 294.462 130H9.95117C4.45528 130 1.70089e-05 125.545 0 120.049V-65.0488C2.23242e-05 -70.5447 4.45528 -75 9.95117 -75H415.049Z"/>
</mask>
<path d="M415.049 -75C420.545 -74.9998 425 -70.5446 425 -65.0488V34.415C425 43.2516 417.837 50.415 409 50.415H375.315C370.544 50.415 366.022 52.5439 362.983 56.221L306.794 124.194C303.755 127.871 299.233 130 294.462 130H9.95117C4.45528 130 1.70089e-05 125.545 0 120.049V-65.0488C2.23242e-05 -70.5447 4.45528 -75 9.95117 -75H415.049Z" fill="#F0F0F0"/>
<path d="M415.049 -75L415.049 -76H415.049V-75ZM425 -65.0488L426 -65.0488L426 -65.0488L425 -65.0488ZM0 120.049L-1 120.049L-1 120.049L0 120.049ZM0 -65.0488L-1 -65.0488V-65.0488H0ZM306.794 124.194L306.024 123.557L306.794 124.194ZM362.983 56.221L363.754 56.8581L362.983 56.221ZM415.049 -75L415.049 -74C419.992 -73.9998 424 -69.9923 424 -65.0488L425 -65.0488L426 -65.0488C426 -71.0969 421.097 -75.9998 415.049 -76L415.049 -75ZM425 -65.0488H424V34.415H425H426V-65.0488H425ZM409 50.415V49.415H375.315V50.415V51.415H409V50.415ZM362.983 56.221L362.212 55.5838L306.024 123.557L306.794 124.194L307.565 124.831L363.754 56.8581L362.983 56.221ZM294.462 130V129H9.95117V130V131H294.462V130ZM9.95117 130V129C5.00756 129 1.00002 124.992 1 120.049L0 120.049L-1 120.049C-0.999981 126.097 3.90299 131 9.95117 131V130ZM0 120.049H1V-65.0488H0H-1V120.049H0ZM0 -65.0488L1 -65.0488C1.00002 -69.9924 5.00757 -74 9.95117 -74V-75V-76C3.90299 -76 -0.999975 -71.097 -1 -65.0488L0 -65.0488ZM9.95117 -75V-74H415.049V-75V-76H9.95117V-75ZM306.794 124.194L306.024 123.557C303.174 127.004 298.935 129 294.462 129V130V131C299.531 131 304.336 128.738 307.565 124.831L306.794 124.194ZM375.315 50.415V49.415C370.246 49.415 365.442 51.677 362.212 55.5838L362.983 56.221L363.754 56.8581C366.603 53.4109 370.842 51.415 375.315 51.415V50.415ZM425 34.415H424C424 42.6993 417.284 49.415 409 49.415V50.415V51.415C418.389 51.415 426 43.8039 426 34.415H425Z" fill="#343434" mask="url(#path-2-inside-1_2050_213)"/>
</g>
</svg>
