<svg width="487" height="698" viewBox="0 0 487 698" fill="none" xmlns="http://www.w3.org/2000/svg">
<mask id="path-1-inside-1_363_923" fill="white">
<path d="M455 0C472.673 0 487 14.3269 487 32V623C487 636.255 476.255 647 463 647H281.879C274.563 647 267.647 650.337 263.093 656.064L236.957 688.936C232.404 694.663 225.488 698 218.171 698H32C14.3269 698 0 683.673 0 666V32C0 14.3269 14.3269 7.69301e-07 32 0H455Z"/>
</mask>
<path d="M32 0V-1V0ZM236.957 688.936L236.175 688.314L236.957 688.936ZM263.093 656.064L263.876 656.686L263.093 656.064ZM455 0V1C472.121 1 486 14.8792 486 32H487H488C488 13.7746 473.225 -1 455 -1V0ZM487 32H486V623H487H488V32H487ZM463 647V646H281.879V647V648H463V647ZM263.093 656.064L262.311 655.441L236.175 688.314L236.957 688.936L237.74 689.559L263.876 656.686L263.093 656.064ZM218.171 698V697H32V698V699H218.171V698ZM32 698V697C14.8792 697 1 683.121 1 666H0H-1C-1 684.225 13.7746 699 32 699V698ZM0 666H1V32H0H-1V666H0ZM0 32H1C1 14.8792 14.8792 1 32 1V0V-1C13.7746 -0.999999 -1 13.7746 -1 32H0ZM32 0V1H455V0V-1H32V0ZM236.957 688.936L236.175 688.314C231.811 693.802 225.183 697 218.171 697V698V699C225.792 699 232.997 695.524 237.74 689.559L236.957 688.936ZM281.879 647V646C274.258 646 267.054 649.476 262.311 655.441L263.093 656.064L263.876 656.686C268.24 651.198 274.868 648 281.879 648V647ZM487 623H486C486 635.703 475.703 646 463 646V647V648C476.807 648 488 636.807 488 623H487Z" fill="#343434" mask="url(#path-1-inside-1_363_923)"/>
</svg>
