<svg width="488" height="731" viewBox="0 0 488 731" fill="none" xmlns="http://www.w3.org/2000/svg">
<mask id="path-1-inside-1_477_387" fill="white">
<path d="M455.935 0C473.644 5.15539e-05 488 14.3562 488 32.0654V649.014C488 662.296 477.233 673.063 463.951 673.063H276.446C269.115 673.063 262.184 676.407 257.622 682.146L226.398 721.417C221.835 727.155 214.905 730.499 207.574 730.499H32.0645C14.3552 730.499 -0.000976562 716.142 -0.000976562 698.433V32.0654C-0.00077157 14.3563 14.3553 0.000249859 32.0645 0H455.935Z"/>
</mask>
<path d="M455.935 0V-1.00206V0ZM488 32.0654H489.002V32.0654L488 32.0654ZM32.0645 730.499L32.0644 731.501H32.0645V730.499ZM-0.000976562 32.0654L-1.00303 32.0654V32.0654H-0.000976562ZM32.0645 0V-1.00206H32.0644L32.0645 0ZM226.398 721.417L227.182 722.04L226.398 721.417ZM257.622 682.146L256.837 681.522L257.622 682.146ZM455.935 0V1.00206C473.09 1.00211 486.998 14.9096 486.998 32.0654L488 32.0654L489.002 32.0654C489.002 13.8028 474.197 -1.002 455.935 -1.00206V0ZM488 32.0654H486.998V649.014H488H489.002V32.0654H488ZM463.951 673.063V672.061H276.446V673.063V674.066H463.951V673.063ZM257.622 682.146L256.837 681.522L225.614 720.793L226.398 721.417L227.182 722.04L258.406 682.769L257.622 682.146ZM207.574 730.499V729.497H32.0645V730.499V731.501H207.574V730.499ZM32.0645 730.499L32.0645 729.497C14.9087 729.497 1.00108 715.589 1.00108 698.433H-0.000976562H-1.00303C-1.00303 716.695 13.8018 731.501 32.0644 731.501L32.0645 730.499ZM-0.000976562 698.433H1.00108V32.0654H-0.000976562H-1.00303V698.433H-0.000976562ZM-0.000976562 32.0654L1.00108 32.0654C1.00128 14.9097 14.9088 1.0023 32.0645 1.00206L32.0645 0L32.0644 -1.00206C13.8019 -1.0018 -1.00282 13.8029 -1.00303 32.0654L-0.000976562 32.0654ZM32.0645 0V1.00206H455.935V0V-1.00206H32.0645V0ZM226.398 721.417L225.614 720.793C221.241 726.292 214.599 729.497 207.574 729.497V730.499V731.501C215.21 731.501 222.43 728.018 227.182 722.04L226.398 721.417ZM276.446 673.063V672.061C268.809 672.061 261.59 675.545 256.837 681.522L257.622 682.146L258.406 682.769C262.778 677.27 269.42 674.066 276.446 674.066V673.063ZM488 649.014H486.998C486.998 661.743 476.679 672.061 463.951 672.061V673.063V674.066C477.786 674.066 489.002 662.85 489.002 649.014H488Z" fill="#343434" mask="url(#path-1-inside-1_477_387)"/>
</svg>
