<svg width="20" height="21" viewBox="0 0 20 21" fill="none" xmlns="http://www.w3.org/2000/svg">
<path d="M10.9463 1.636C11.029 1.64133 11.103 1.64833 11.1683 1.657C15.6713 2.35 17.7423 4.483 18.3153 9.021C18.3253 9.098 18.3273 9.192 18.3283 9.291C18.3343 9.646 18.3463 10.384 19.1383 10.399H19.1623C19.4117 10.399 19.6077 10.3247 19.7503 10.176C19.9963 9.919 19.9803 9.536 19.9653 9.228C19.962 9.15133 19.96 9.08133 19.9593 9.018C20.0173 4.378 15.9993 0.169 11.3633 0.013C11.3433 0.013 11.3247 0.014 11.3073 0.016L11.2523 0.019C11.2043 0.0183333 11.1497 0.0156667 11.0883 0.011C11.0163 0.006 10.9333 0 10.8483 0C10.1103 0 9.97034 0.525 9.95234 0.838C9.91134 1.561 10.6103 1.612 10.9463 1.636ZM18.0983 14.886C18.0017 14.8126 17.906 14.7379 17.8113 14.662C17.3193 14.266 16.7963 13.902 16.2913 13.549L15.9763 13.329C15.3283 12.874 14.7463 12.653 14.1963 12.653C13.4543 12.653 12.8083 13.063 12.2743 13.87C12.0383 14.228 11.7513 14.402 11.3983 14.402C11.153 14.3947 10.9121 14.3343 10.6923 14.225C8.60234 13.277 7.10834 11.823 6.25434 9.904C5.84134 8.976 5.97534 8.37 6.70134 7.876C7.11434 7.596 7.88134 7.075 7.82834 6.076C7.76634 4.943 5.26534 1.532 4.21134 1.145C3.7608 0.980387 3.26681 0.978972 2.81534 1.141C1.60434 1.548 0.736337 2.264 0.301337 3.209C-0.118663 4.123 -0.0986627 5.196 0.355337 6.312C1.67034 9.539 3.51834 12.353 5.84934 14.675C8.13034 16.948 10.9343 18.809 14.1823 20.208C14.4753 20.334 14.7823 20.403 15.0073 20.453C15.0833 20.47 15.1493 20.485 15.1973 20.498C15.2237 20.5053 15.251 20.509 15.2783 20.509H15.3043C16.8323 20.509 18.6673 19.113 19.2303 17.522C19.7243 16.128 18.8223 15.439 18.0983 14.886ZM11.6223 5.323C11.3613 5.329 10.8163 5.343 10.6253 5.897C10.5353 6.157 10.546 6.38 10.6573 6.566C10.8193 6.836 11.1303 6.92 11.4123 6.966C12.4373 7.13 12.9643 7.696 13.0693 8.749C13.1183 9.239 13.4493 9.582 13.8723 9.582C13.9044 9.58154 13.9365 9.57954 13.9683 9.576C14.4783 9.516 14.7253 9.141 14.7033 8.462C14.7113 7.754 14.3413 6.95 13.7103 6.31C13.0783 5.668 12.3163 5.306 11.6223 5.323Z" fill="#fff"/>
</svg>
