<svg width="432" height="626" viewBox="0 0 432 626" fill="none" xmlns="http://www.w3.org/2000/svg">
<mask id="path-1-inside-1_323_3066" fill="white">
<path d="M400 0C417.673 0 432 14.3269 432 32V559C432 572.255 421.255 583 408 583H272.114C265.836 583 259.808 585.46 255.323 589.852L225.403 619.148C220.917 623.54 214.89 626 208.612 626H32C14.3269 626 1.33274e-05 611.673 0 594V32C0 14.3269 14.3269 0 32 0H400Z"/>
</mask>
<path d="M32 626V627V626ZM0 594H-1H0ZM225.403 619.148L226.102 619.863L225.403 619.148ZM255.323 589.852L256.022 590.566L255.323 589.852ZM400 0V1C417.121 1 431 14.8792 431 32H432H433C433 13.7746 418.225 -1 400 -1V0ZM432 32H431V559H432H433V32H432ZM408 583V582H272.114V583V584H408V583ZM255.323 589.852L254.623 589.137L224.703 618.434L225.403 619.148L226.102 619.863L256.022 590.566L255.323 589.852ZM208.612 626V625H32V626V627H208.612V626ZM32 626V625C14.8792 625 1.00001 611.121 1 594H0H-1C-0.999986 612.225 13.7746 627 32 627V626ZM0 594H1V32H0H-1V594H0ZM0 32H1C1 14.8792 14.8792 1 32 1V0V-1C13.7746 -1 -1 13.7746 -1 32H0ZM32 0V1H400V0V-1H32V0ZM225.403 619.148L224.703 618.434C220.405 622.643 214.628 625 208.612 625V626V627C215.151 627 221.43 624.438 226.102 619.863L225.403 619.148ZM272.114 583V582C265.574 582 259.296 584.562 254.623 589.137L255.323 589.852L256.022 590.566C260.321 586.357 266.098 584 272.114 584V583ZM432 559H431C431 571.703 420.703 582 408 582V583V584C421.807 584 433 572.807 433 559H432Z" fill="#343434" mask="url(#path-1-inside-1_323_3066)"/>
</svg>
