<svg width="861" height="470" viewBox="0 0 861 470" fill="none" xmlns="http://www.w3.org/2000/svg">
<mask id="mask0_889_461" style="mask-type:alpha" maskUnits="userSpaceOnUse" x="0" y="0" width="861" height="470">
<rect width="861" height="470" fill="#D9D9D9"/>
</mask>
<g mask="url(#mask0_889_461)">
<mask id="path-2-inside-1_889_461" fill="white">
<path d="M837 -53.6187C850.255 -53.6186 861 -42.8735 861 -29.6187V373.112C861 386.367 850.255 397.112 837 397.112H633.957C627.617 397.112 621.534 399.621 617.037 404.091L557.757 463.02C553.26 467.49 547.177 470 540.837 470H24C10.7452 470 0 459.254 0 446V-29.6187C1.08204e-06 -42.8735 10.7452 -53.6187 24 -53.6187H837Z"/>
</mask>
<path d="M837 -53.6187C850.255 -53.6186 861 -42.8735 861 -29.6187V373.112C861 386.367 850.255 397.112 837 397.112H633.957C627.617 397.112 621.534 399.621 617.037 404.091L557.757 463.02C553.26 467.49 547.177 470 540.837 470H24C10.7452 470 0 459.254 0 446V-29.6187C1.08204e-06 -42.8735 10.7452 -53.6187 24 -53.6187H837Z" fill="#FBFBFB"/>
<path d="M837 -53.6187V-54.6187V-53.6187ZM861 -29.6187H862H861ZM24 470V471V470ZM0 -29.6187H-1H0ZM24 -53.6187V-54.6187V-53.6187ZM557.757 463.02L558.462 463.729L557.757 463.02ZM837 -53.6187V-52.6187C849.703 -52.6186 860 -42.3212 860 -29.6187H861H862C862 -43.4258 850.807 -54.6186 837 -54.6187V-53.6187ZM861 -29.6187H860V373.112H861H862V-29.6187H861ZM837 397.112V396.112H633.957V397.112V398.112H837V397.112ZM617.037 404.091L616.332 403.382L557.052 462.311L557.757 463.02L558.462 463.729L617.742 404.8L617.037 404.091ZM540.837 470V469H24V470V471H540.837V470ZM24 470V469C11.2975 469 1 458.702 1 446H0H-1C-1 459.807 10.1929 471 24 471V470ZM0 446H1V-29.6187H0H-1V446H0ZM0 -29.6187H1C1 -42.3212 11.2975 -52.6187 24 -52.6187V-53.6187V-54.6187C10.1929 -54.6187 -0.999999 -43.4258 -1 -29.6187H0ZM24 -53.6187V-52.6187H837V-53.6187V-54.6187H24V-53.6187ZM557.757 463.02L557.052 462.311C552.743 466.595 546.913 469 540.837 469V470V471C547.442 471 553.778 468.386 558.462 463.729L557.757 463.02ZM633.957 397.112V396.112C627.352 396.112 621.016 398.725 616.332 403.382L617.037 404.091L617.742 404.8C622.051 400.516 627.881 398.112 633.957 398.112V397.112ZM861 373.112H860C860 385.814 849.703 396.112 837 396.112V397.112V398.112C850.807 398.112 862 386.919 862 373.112H861Z" fill="black" fill-opacity="0.5" mask="url(#path-2-inside-1_889_461)"/>
</g>
</svg>
