<svg width="243" height="347" viewBox="0 0 243 347" fill="none" xmlns="http://www.w3.org/2000/svg">
<mask id="path-1-inside-1_231_633" fill="white">
<path d="M232.086 0C237.846 0.000247732 242.517 4.67011 242.517 10.4307V261.5C242.517 267.907 237.322 273.102 230.915 273.102H174.926C171.505 273.102 168.259 274.611 166.055 277.227L110.877 342.697C108.673 345.313 105.426 346.822 102.006 346.822H11.3018C5.54118 346.822 0.871352 342.152 0.871094 336.392V10.4307C0.87112 4.66995 5.54104 0 11.3018 0H232.086Z"/>
</mask>
<path d="M232.086 0C237.846 0.000247732 242.517 4.67011 242.517 10.4307V261.5C242.517 267.907 237.322 273.102 230.915 273.102H174.926C171.505 273.102 168.259 274.611 166.055 277.227L110.877 342.697C108.673 345.313 105.426 346.822 102.006 346.822H11.3018C5.54118 346.822 0.871352 342.152 0.871094 336.392V10.4307C0.87112 4.66995 5.54104 0 11.3018 0H232.086Z" fill="#FBFBFB"/>
<path d="M232.086 0L232.086 -0.866988H232.086V0ZM242.517 10.4307H243.384V10.4307L242.517 10.4307ZM0.871094 336.392H0.00410557V336.392L0.871094 336.392ZM0.871094 10.4307L0.00410557 10.4307V10.4307H0.871094ZM110.877 342.697L110.214 342.138L110.877 342.697ZM166.055 277.227L166.718 277.785L166.055 277.227ZM232.086 0L232.086 0.866988C237.368 0.867215 241.65 5.14897 241.65 10.4307L242.517 10.4307L243.384 10.4307C243.384 4.19126 238.325 -0.86672 232.086 -0.866988L232.086 0ZM242.517 10.4307H241.65V261.5H242.517H243.384V10.4307H242.517ZM230.915 273.102V272.235H174.926V273.102V273.969H230.915V273.102ZM166.055 277.227L165.392 276.668L110.214 342.138L110.877 342.697L111.54 343.256L166.718 277.785L166.055 277.227ZM102.006 346.822V345.955H11.3018V346.822V347.689H102.006V346.822ZM11.3018 346.822V345.955C6.02005 345.955 1.73832 341.673 1.73808 336.392L0.871094 336.392L0.00410557 336.392C0.00438488 342.631 5.06232 347.689 11.3018 347.689V346.822ZM0.871094 336.392H1.73808V10.4307H0.871094H0.00410557V336.392H0.871094ZM0.871094 10.4307L1.73808 10.4307C1.73811 5.14877 6.01987 0.866988 11.3018 0.866988V0V-0.866988C5.06221 -0.866988 0.00413448 4.19113 0.00410557 10.4307L0.871094 10.4307ZM11.3018 0V0.866988H232.086V0V-0.866988H11.3018V0ZM110.877 342.697L110.214 342.138C108.174 344.559 105.171 345.955 102.006 345.955V346.822V347.689C105.682 347.689 109.171 346.067 111.54 343.256L110.877 342.697ZM174.926 273.102V272.235C171.25 272.235 167.761 273.857 165.392 276.668L166.055 277.227L166.718 277.785C168.757 275.365 171.761 273.969 174.926 273.969V273.102ZM242.517 261.5H241.65C241.65 267.428 236.843 272.235 230.915 272.235V273.102V273.969C237.801 273.969 243.384 268.386 243.384 261.5H242.517Z" fill="#343434" mask="url(#path-1-inside-1_231_633)"/>
</svg>
