<svg width="0" height="0" class="hidden">

  <symbol fill="none" xmlns="http://www.w3.org/2000/svg" viewBox="0 0 13 23" id="a-left">
    <path d="M3.28807 11.7559C3.34381 11.5899 3.34381 11.4101 3.28807 11.2441L0.0444843 1.55969C-0.214685 0.7825 0.717052 0.162029 1.32761 0.70574L12.7326 10.9019C12.8167 10.9769 12.884 11.069 12.9301 11.1721C12.9762 11.2752 13 11.387 13 11.5C13 11.613 12.9762 11.7248 12.9301 11.8279C12.884 11.931 12.8167 12.0231 12.7326 12.0981L1.32761 22.2943C0.717052 22.838 -0.214685 22.2175 0.0460742 21.4403L3.28807 11.7559Z" fill="#151515"></path>
  </symbol>

</svg>


<svg width="280" height="356" viewBox="0 0 280 356" fill="none" xmlns="http://www.w3.org/2000/svg">
<mask id="path-1-inside-1_368_3332" fill="white">
<path d="M257.72 0C269.612 2.04809e-05 279.252 9.64028 279.252 21.5322V306.841C279.252 315.76 272.022 322.99 263.102 322.99H222.133C217.909 322.99 213.853 324.645 210.834 327.601L187.264 350.68C184.246 353.635 180.19 355.29 175.966 355.29H21.5332C9.64101 355.29 0 345.649 0 333.757V21.5322C0.000251898 9.64025 9.64117 0 21.5332 0H257.72Z"/>
</mask>
<path d="M257.72 0V-0.672897V0ZM279.252 21.5322H279.925V21.5322L279.252 21.5322ZM0 21.5322L-0.672897 21.5322V21.5322H0ZM187.264 350.68L186.794 350.199L187.264 350.68ZM210.834 327.601L211.305 328.082L210.834 327.601ZM257.72 0V0.672897C269.24 0.672917 278.579 10.0119 278.579 21.5322L279.252 21.5322L279.925 21.5322C279.925 9.26865 269.983 -0.672876 257.72 -0.672897V0ZM279.252 21.5322H278.579V306.841H279.252H279.925V21.5322H279.252ZM263.102 322.99V322.317H222.133V322.99V323.663H263.102V322.99ZM210.834 327.601L210.364 327.12L186.794 350.199L187.264 350.68L187.735 351.16L211.305 328.082L210.834 327.601ZM175.966 355.29V354.617H21.5332V355.29V355.963H175.966V355.29ZM21.5332 355.29V354.617C10.0126 354.617 0.672897 345.277 0.672897 333.757H0H-0.672897C-0.672897 346.021 9.26938 355.963 21.5332 355.963V355.29ZM0 333.757H0.672897V21.5322H0H-0.672897V333.757H0ZM0 21.5322L0.672897 21.5322C0.673141 10.0119 10.0128 0.672897 21.5332 0.672897V0V-0.672897C9.26956 -0.672897 -0.672638 9.26859 -0.672897 21.5322L0 21.5322ZM21.5332 0V0.672897H257.72V0V-0.672897H21.5332V0ZM187.264 350.68L186.794 350.199C183.901 353.031 180.014 354.617 175.966 354.617V355.29V355.963C180.366 355.963 184.591 354.239 187.735 351.16L187.264 350.68ZM222.133 322.99V322.317C217.733 322.317 213.508 324.041 210.364 327.12L210.834 327.601L211.305 328.082C214.198 325.249 218.085 323.663 222.133 323.663V322.99ZM279.252 306.841H278.579C278.579 315.388 271.65 322.317 263.102 322.317V322.99V323.663C272.393 323.663 279.925 316.131 279.925 306.841H279.252Z" fill="black" mask="url(#path-1-inside-1_368_3332)"/>
</svg>
