<svg width="416" height="679" viewBox="0 0 416 679" fill="none" xmlns="http://www.w3.org/2000/svg">
<mask id="path-1-inside-1_1692_3439" fill="white">
<path d="M384 0C401.673 0 416 14.3269 416 32V606.771C416 620.026 405.255 630.771 392 630.771H280.687C274.071 630.771 267.749 633.502 263.214 638.319L232.017 671.452C227.482 676.269 221.159 679 214.543 679H32C14.3269 679 0 664.673 0 647V32C4.69621e-06 14.3269 14.3269 2.56539e-05 32 0H384Z"/>
</mask>
<path d="M416 32H417H416ZM32 679L32 680H32V679ZM0 32H-1H0ZM32 0V-1H32L32 0ZM384 0V1C401.121 1 415 14.8792 415 32H416H417C417 13.7746 402.225 -1 384 -1V0ZM416 32H415V606.771H416H417V32H416ZM392 630.771V629.771H280.687V630.771V631.771H392V630.771ZM263.214 638.319L262.486 637.634L231.289 670.767L232.017 671.452L232.745 672.138L263.942 639.005L263.214 638.319ZM214.543 679V678H32V679V680H214.543V679ZM32 679V678C14.8792 678 1 664.121 1 647H0H-1C-1 665.225 13.7746 680 32 680L32 679ZM0 647H1V32H0H-1V647H0ZM0 32H1C1 14.8792 14.8792 1.00002 32 1V0L32 -1C13.7746 -0.999974 -0.999995 13.7746 -1 32H0ZM32 0V1H384V0V-1H32V0ZM232.017 671.452L231.289 670.767C226.942 675.383 220.883 678 214.543 678V679V680C221.435 680 228.021 677.155 232.745 672.138L232.017 671.452ZM280.687 630.771V629.771C273.796 629.771 267.21 632.616 262.486 637.634L263.214 638.319L263.942 639.005C268.288 634.389 274.347 631.771 280.687 631.771V630.771ZM416 606.771H415C415 619.474 404.703 629.771 392 629.771V630.771V631.771C405.807 631.771 417 620.579 417 606.771H416Z" fill="#343434" mask="url(#path-1-inside-1_1692_3439)"/>
</svg>
