<svg width="21" height="18" viewBox="0 0 21 18" fill="none" xmlns="http://www.w3.org/2000/svg">
<path d="M20.699 2.09501L18.4595 16.434C18.4286 16.6317 18.3491 16.8186 18.2281 16.978C18.1072 17.1373 17.9485 17.2642 17.7664 17.3471C17.5843 17.43 17.3845 17.4664 17.1848 17.4529C16.9852 17.4395 16.792 17.3767 16.6227 17.2702L9.12341 12.5714C8.96755 12.4738 8.83599 12.342 8.73877 12.186C8.64155 12.0299 8.58123 11.8538 8.5624 11.6709C8.54358 11.488 8.56675 11.3032 8.63014 11.1306C8.69354 10.958 8.79549 10.8022 8.92823 10.675L15.1536 4.70845C15.2235 4.6427 15.1413 4.53381 15.0591 4.58312L6.03537 9.98258C5.49901 10.3051 4.86207 10.4171 4.24787 10.2969L0.981073 9.66617C-0.198262 9.43811 -0.360576 7.8191 0.746849 7.36092L18.215 0.139038C18.5126 0.015226 18.8378 -0.0269785 19.1571 0.0167766C19.4764 0.0605318 19.7783 0.188663 20.0316 0.387959C20.2849 0.587256 20.4805 0.850505 20.5982 1.15057C20.7158 1.45063 20.7513 1.77665 20.701 2.09501" fill="#343434"/>
</svg>
