<svg width="27" height="27" viewBox="0 0 27 27" fill="none" xmlns="http://www.w3.org/2000/svg">
<path d="M18.4766 0.00488281C18.6926 0.026325 18.8965 0.121292 19.0518 0.276367C19.229 0.45356 19.329 0.694486 19.3291 0.945312V2.58301H22.9043C23.84 2.5831 24.7377 2.95464 25.3994 3.61621C26.0612 4.27802 26.4336 5.17626 26.4336 6.1123V22.9043C26.4335 23.8403 26.0611 24.7377 25.3994 25.3994C24.7377 26.0611 23.8403 26.4335 22.9043 26.4336H3.5293C2.59373 26.4325 1.69571 26.06 1.03418 25.3984C0.372746 24.7369 0.00117817 23.8396 0 22.9043V6.1123C0.00112039 5.17696 0.372823 4.2797 1.03418 3.61816C1.69571 2.95663 2.59373 2.58413 3.5293 2.58301H7.10352V0.945312C7.10362 0.694485 7.20367 0.453559 7.38086 0.276367C7.55849 0.0988443 7.79944 4.99746e-09 8.0498 0L8.14355 0.00488281C8.35963 0.0263007 8.56342 0.121137 8.71875 0.276367C8.89594 0.45356 8.99598 0.694486 8.99609 0.945312V2.58301H17.4375V0.945312C17.4376 0.695158 17.5362 0.454034 17.7139 0.276367C17.8915 0.0987012 18.1327 0.000108932 18.3828 0L18.4766 0.00488281ZM1.8916 22.9062C1.8922 23.3396 2.06463 23.755 2.37109 24.0615C2.67812 24.3686 3.09492 24.541 3.5293 24.541H22.9043L23.0664 24.5332C23.441 24.4959 23.793 24.3301 24.0615 24.0615C24.3301 23.793 24.4959 23.441 24.5332 23.0664L24.541 22.9043V13.0732H1.89062L1.8916 22.9062ZM3.5293 4.47461C2.62316 4.47461 1.8916 5.20823 1.8916 6.1123L1.88867 11.1816H24.5391L24.541 6.1123C24.541 5.67814 24.3685 5.26219 24.0615 4.95508C23.7928 4.68637 23.4408 4.51991 23.0664 4.48242L22.9043 4.47461H19.3291V6.1123C19.3291 6.36337 19.229 6.60403 19.0518 6.78125C18.8968 6.93612 18.6931 7.03206 18.4766 7.05371L18.3828 7.05859C18.132 7.05848 17.8911 6.95844 17.7139 6.78125C17.5363 6.60362 17.4375 6.36267 17.4375 6.1123V4.47461H8.99609V6.1123C8.99609 6.36337 8.89597 6.60403 8.71875 6.78125C8.56373 6.93627 8.36013 7.03209 8.14355 7.05371L8.0498 7.05859C7.79874 7.05859 7.55808 6.95847 7.38086 6.78125C7.20364 6.60403 7.10352 6.36337 7.10352 6.1123V4.47461H3.5293Z" fill="#343434" fill-opacity="0.75"/>
</svg>
