<svg width="20" height="21" viewBox="0 0 20 21" fill="none" xmlns="http://www.w3.org/2000/svg">
<path d="M10.96 2.136C11.0427 2.14133 11.1167 2.14833 11.182 2.157C15.685 2.85 17.756 4.983 18.329 9.521C18.339 9.598 18.341 9.692 18.342 9.791C18.348 10.146 18.36 10.884 19.152 10.899H19.176C19.4253 10.899 19.6213 10.8247 19.764 10.676C20.01 10.419 19.994 10.036 19.979 9.728C19.9757 9.65133 19.9737 9.58133 19.973 9.518C20.031 4.878 16.013 0.669 11.377 0.513C11.357 0.513 11.3383 0.514 11.321 0.516L11.266 0.519C11.218 0.518333 11.1633 0.515667 11.102 0.511C11.03 0.506 10.947 0.5 10.862 0.5C10.124 0.5 9.98401 1.025 9.96601 1.338C9.92501 2.061 10.624 2.112 10.96 2.136ZM18.112 15.386C18.0154 15.3126 17.9197 15.2379 17.825 15.162C17.333 14.766 16.81 14.402 16.305 14.049L15.99 13.829C15.342 13.374 14.76 13.153 14.21 13.153C13.468 13.153 12.822 13.563 12.288 14.37C12.052 14.728 11.765 14.902 11.412 14.902C11.1667 14.8947 10.9258 14.8343 10.706 14.725C8.61601 13.777 7.12201 12.323 6.26801 10.404C5.85501 9.476 5.98901 8.87 6.71501 8.376C7.12801 8.096 7.89501 7.575 7.84201 6.576C7.78001 5.443 5.27901 2.032 4.22501 1.645C3.77447 1.48039 3.28048 1.47897 2.82901 1.641C1.61801 2.048 0.750009 2.764 0.315009 3.709C-0.104991 4.623 -0.0849908 5.696 0.369009 6.812C1.68401 10.039 3.53201 12.853 5.86301 15.175C8.14401 17.448 10.948 19.309 14.196 20.708C14.489 20.834 14.796 20.903 15.021 20.953C15.097 20.97 15.163 20.985 15.211 20.998C15.2374 21.0053 15.2646 21.009 15.292 21.009H15.318C16.846 21.009 18.681 19.613 19.244 18.022C19.738 16.628 18.836 15.939 18.112 15.386ZM11.636 5.823C11.375 5.829 10.83 5.843 10.639 6.397C10.549 6.657 10.5597 6.88 10.671 7.066C10.833 7.336 11.144 7.42 11.426 7.466C12.451 7.63 12.978 8.196 13.083 9.249C13.132 9.739 13.463 10.082 13.886 10.082C13.9181 10.0815 13.9501 10.0795 13.982 10.076C14.492 10.016 14.739 9.641 14.717 8.962C14.725 8.254 14.355 7.45 13.724 6.81C13.092 6.168 12.33 5.806 11.636 5.823Z" fill="#343434"/>
</svg>
