<svg width="20" height="21" viewBox="0 0 20 21" fill="none" xmlns="http://www.w3.org/2000/svg">
<path fill-rule="evenodd" clip-rule="evenodd" d="M10 0.665039C4.477 0.665039 0 5.14204 0 10.665C0 12.555 0.525 14.325 1.438 15.833L0.546 18.865C0.494785 19.0391 0.491415 19.2238 0.536244 19.3996C0.581074 19.5755 0.672448 19.736 0.800759 19.8643C0.929071 19.9926 1.08958 20.084 1.26542 20.1288C1.44125 20.1736 1.62592 20.1703 1.8 20.119L4.832 19.227C6.39074 20.17 8.17824 20.6674 10 20.665C15.523 20.665 20 16.188 20 10.665C20 5.14204 15.523 0.665039 10 0.665039ZM7.738 12.928C9.761 14.95 11.692 15.217 12.374 15.242C13.411 15.28 14.421 14.488 14.814 13.569C14.8632 13.4546 14.881 13.3292 14.8655 13.2056C14.85 13.082 14.8019 12.9648 14.726 12.866C14.178 12.166 13.437 11.663 12.713 11.163C12.5619 11.0583 12.3761 11.0162 12.1946 11.0457C12.0131 11.0751 11.8502 11.1739 11.74 11.321L11.14 12.236C11.1083 12.285 11.0591 12.3202 11.0025 12.3343C10.9459 12.3484 10.886 12.3404 10.835 12.312C10.428 12.079 9.835 11.683 9.409 11.257C8.983 10.831 8.611 10.265 8.402 9.88404C8.37672 9.83549 8.36957 9.77953 8.38185 9.72619C8.39413 9.67285 8.42503 9.62564 8.469 9.59304L9.393 8.90704C9.52525 8.79263 9.61063 8.63345 9.63277 8.45999C9.65491 8.28653 9.61226 8.111 9.513 7.96704C9.065 7.31104 8.543 6.47704 7.786 5.92404C7.6881 5.8537 7.57369 5.80983 7.45385 5.79669C7.33402 5.78355 7.21282 5.80158 7.102 5.84904C6.182 6.24304 5.386 7.25304 5.424 8.29204C5.449 8.97404 5.716 10.905 7.738 12.928Z" fill="#343434"/>
</svg>
